<svg xmlns="http://www.w3.org/2000/svg" width="37.454" height="27.444" viewBox="0 0 37.454 27.444">
  <g id="admin" transform="translate(-51.198 -211.162)">
    <path id="Path_31382" data-name="Path 31382" d="M51.2,218.2q3.173-1.192,6.346-2.385,6.087-2.3,12.175-4.6a1.051,1.051,0,0,1,.684,0q8.887,3.4,17.764,6.823c.134.052.265.111.485.2-.206.082-.332.139-.463.182q-8.84,2.918-17.681,5.837a1.276,1.276,0,0,1-.845.017q-9.076-2.958-18.158-5.9c-.1-.034-.205-.074-.308-.112Z" transform="translate(0)"/>
    <path id="Path_31383" data-name="Path 31383" d="M154.893,349.46c.2.055.335.087.469.133,3.418,1.151,6.835,2.309,10.258,3.447a1.238,1.238,0,0,0,.729,0c3.461-1.14,6.915-2.3,10.372-3.449.134-.045.272-.075.432-.118.011.124.025.207.025.29,0,1.558,0,3.117,0,4.675,0,.235-.046.351-.318.355a20.037,20.037,0,0,0-8.95,2.45c-.54.278-1.067.584-1.585.9a.5.5,0,0,1-.592-.008,24.024,24.024,0,0,0-7.516-2.992c-.96-.2-1.945-.275-2.922-.378-.335-.036-.442-.15-.437-.494.02-1.461.008-2.922.009-4.383C154.872,349.768,154.883,349.649,154.893,349.46Z" transform="translate(-96.074 -128.172)"/>
    <path id="Path_31384" data-name="Path 31384" d="M474.87,346.823a1.284,1.284,0,0,1,.419,1.092c-.009,2.252,0,4.5,0,6.756,0,.522,0,.522-.539.522h-1.686v-.5c0-2.24,0-4.479,0-6.719a1.223,1.223,0,0,1,.415-1.136c-.579-.741-.551-1.164.06-1.809a.672.672,0,0,0,.117-.426c.007-2.252,0-4.5.006-6.756,0-.649-.072-.549.541-.743.136-.043.273-.083.459-.139.014.193.034.344.034.5q0,3.56,0,7.121a.658.658,0,0,0,.232.567C475.418,345.583,475.394,346.175,474.87,346.823Z" transform="translate(-390.968 -116.588)"/>
  </g>
</svg>
