<svg id="announcement" xmlns="http://www.w3.org/2000/svg" width="71.508" height="81.347" viewBox="0 0 71.508 81.347">
  <path id="Path_31274" data-name="Path 31274" d="M490.314,678.674A8.289,8.289,0,0,0,494.3,676.7a7.083,7.083,0,0,0,.318-10c-1.591-1.7-3.268-3.315-4.932-4.943a.767.767,0,0,0-.715-.1q-6.036,3.652-12.042,7.354c-.018.011-.025.039-.071.116,1.26,1.256,2.533,2.524,3.8,3.792.861.86,1.756,1.689,2.574,2.588a9.255,9.255,0,0,0,5.169,3.16Z" transform="translate(-454.871 -597.326)" fill="#5972ff"/>
  <path id="Path_31275" data-name="Path 31275" d="M410.821,257a2.872,2.872,0,0,0-1.79,3.092c.08,2.217.016,4.438.023,6.658a2.383,2.383,0,0,0,2.406,2.647,2.425,2.425,0,0,0,2.355-2.64c.01-2.246-.039-4.493.017-6.737a2.774,2.774,0,0,0-1.9-3.019Z" transform="translate(-361.396 -257)" fill="#5972ff"/>
  <path id="Path_31276" data-name="Path 31276" d="M468.561,413.293,440.65,385.381c-.128.2-.289.432-.437.675q-11.02,18.051-22.037,36.1c-1.062,1.74-.966,2.555.466,3.987q4.661,4.662,9.324,9.323a2.48,2.48,0,0,0,3.609.437q18.222-11.12,36.441-22.244C468.215,413.542,468.4,413.4,468.561,413.293Z" transform="translate(-417.462 -364.984)" fill="#5972ff"/>
  <path id="Path_31277" data-name="Path 31277" d="M363.173,324.182a7.257,7.257,0,0,0-1.78-4.9c-.139-.159-.28-.319-.429-.468q-13.363-13.366-26.736-26.723a7.142,7.142,0,0,0-10.7,9.45c.218.266.451.52.694.763q13.25,13.254,26.507,26.5a7.112,7.112,0,0,0,8.923,1.312A6.975,6.975,0,0,0,363.173,324.182Z" transform="translate(-296.895 -284.636)" fill="#5972ff"/>
  <path id="Path_31278" data-name="Path 31278" d="M317.866,293.828a2.605,2.605,0,0,0,1.438,2.161,2.142,2.142,0,0,0,2.528-.287c2.024-1.942,4.016-3.921,5.955-5.948a2.355,2.355,0,0,0-3.289-3.343c-2.035,1.931-4.007,3.929-5.952,5.95A5.026,5.026,0,0,0,317.866,293.828Z" transform="translate(-261.451 -281.261)" fill="#5972ff"/>
  <path id="Path_31279" data-name="Path 31279" d="M295.234,381.816c1.242,0,2.485.014,3.727,0a2.374,2.374,0,1,0,.058-4.748q-3.806-.057-7.613,0a2.377,2.377,0,1,0,.1,4.751C292.749,381.827,293.991,381.816,295.234,381.816Z" transform="translate(-229.897 -357.965)" fill="#5972ff"/>
</svg>
