<svg xmlns="http://www.w3.org/2000/svg" width="24.577" height="22.686" viewBox="0 0 24.577 22.686">
  <path id="blue-like-button" d="M.858,9.53H4.719a.862.862,0,0,1,.858.872V21.825a.862.862,0,0,1-.858.862H.858A.862.862,0,0,1,0,21.825V10.4A.862.862,0,0,1,.858,9.54ZM11.8.955c.454-2.3,4.215-.182,4.463,3.521A15.967,15.967,0,0,1,15.939,8.4h5.375c2.234.088,4.185,1.688,2.8,4.317.314,1.144.362,2.488-.49,3.019a4.45,4.45,0,0,1-1.33,3.813,4.525,4.525,0,0,1-.69,2.324c-.722,1.018-1.308.776-2.444.776H10.092a3.5,3.5,0,0,1-3.163-1.576V10.965c2.7-.73,4.143-4.431,4.873-6.861Z" transform="translate(0 -0.001)" fill="#065fd4"/>
</svg>
