<svg xmlns="http://www.w3.org/2000/svg" xmlns:xlink="http://www.w3.org/1999/xlink" width="103.75" height="129.022" viewBox="0 0 103.75 129.022">
  <defs>
    <filter id="Path_31292" x="9.241" y="9.24" width="85.269" height="85.268" filterUnits="userSpaceOnUse">
      <feOffset dy="35" input="SourceAlpha"/>
      <feGaussianBlur stdDeviation="27" result="blur"/>
      <feFlood flood-opacity="0.161" result="color"/>
      <feComposite operator="out" in="SourceGraphic" in2="blur"/>
      <feComposite operator="in" in="color"/>
      <feComposite operator="in" in2="SourceGraphic"/>
    </filter>
    <filter id="Path_31293" x="0.001" y="0" width="103.75" height="103.75" filterUnits="userSpaceOnUse">
      <feOffset input="SourceAlpha"/>
      <feGaussianBlur stdDeviation="2.5" result="blur-2"/>
      <feFlood flood-opacity="0.161"/>
      <feComposite operator="in" in2="blur-2"/>
      <feComposite in="SourceGraphic"/>
    </filter>
    <filter id="Path_31298" x="28.979" y="23.394" width="45.666" height="60.938" filterUnits="userSpaceOnUse">
      <feOffset dy="3" input="SourceAlpha"/>
      <feGaussianBlur stdDeviation="3" result="blur-3"/>
      <feFlood flood-opacity="0.161"/>
      <feComposite operator="in" in2="blur-3"/>
      <feComposite in="SourceGraphic"/>
    </filter>
    <filter id="Path_52281" x="61.282" y="54.764" width="22.997" height="29.693" filterUnits="userSpaceOnUse">
      <feOffset dx="4" dy="2" input="SourceAlpha"/>
      <feGaussianBlur stdDeviation="3" result="blur-4"/>
      <feFlood flood-opacity="0.161"/>
      <feComposite operator="in" in2="blur-4"/>
      <feComposite in="SourceGraphic"/>
    </filter>
    <filter id="Path_52282" x="63.344" y="58.916" width="27.042" height="25.542" filterUnits="userSpaceOnUse">
      <feOffset dx="4" dy="2" input="SourceAlpha"/>
      <feGaussianBlur stdDeviation="3" result="blur-5"/>
      <feFlood flood-opacity="0.161"/>
      <feComposite operator="in" in2="blur-5"/>
      <feComposite in="SourceGraphic"/>
    </filter>
    <filter id="Path_52283" x="66.823" y="44.981" width="22.118" height="27.999" filterUnits="userSpaceOnUse">
      <feOffset dx="4" dy="2" input="SourceAlpha"/>
      <feGaussianBlur stdDeviation="3" result="blur-6"/>
      <feFlood flood-opacity="0.161"/>
      <feComposite operator="in" in2="blur-6"/>
      <feComposite in="SourceGraphic"/>
    </filter>
    <filter id="Path_52284" x="69.18" y="47.32" width="24.675" height="25.662" filterUnits="userSpaceOnUse">
      <feOffset dx="4" dy="2" input="SourceAlpha"/>
      <feGaussianBlur stdDeviation="3" result="blur-7"/>
      <feFlood flood-opacity="0.161"/>
      <feComposite operator="in" in2="blur-7"/>
      <feComposite in="SourceGraphic"/>
    </filter>
    <filter id="Path_52285" x="68.333" y="36.036" width="21.765" height="25.418" filterUnits="userSpaceOnUse">
      <feOffset dx="4" dy="2" input="SourceAlpha"/>
      <feGaussianBlur stdDeviation="3" result="blur-8"/>
      <feFlood flood-opacity="0.161"/>
      <feComposite operator="in" in2="blur-8"/>
      <feComposite in="SourceGraphic"/>
    </filter>
    <filter id="Path_52286" x="71.209" y="35.84" width="22.043" height="25.619" filterUnits="userSpaceOnUse">
      <feOffset dx="4" dy="2" input="SourceAlpha"/>
      <feGaussianBlur stdDeviation="3" result="blur-9"/>
      <feFlood flood-opacity="0.161"/>
      <feComposite operator="in" in2="blur-9"/>
      <feComposite in="SourceGraphic"/>
    </filter>
    <filter id="Path_52287" x="67.065" y="26.951" width="22.287" height="23.807" filterUnits="userSpaceOnUse">
      <feOffset dx="4" dy="2" input="SourceAlpha"/>
      <feGaussianBlur stdDeviation="3" result="blur-10"/>
      <feFlood flood-opacity="0.161"/>
      <feComposite operator="in" in2="blur-10"/>
      <feComposite in="SourceGraphic"/>
    </filter>
    <filter id="Path_52288" x="70.219" y="25.62" width="21.148" height="25.134" filterUnits="userSpaceOnUse">
      <feOffset dx="4" dy="2" input="SourceAlpha"/>
      <feGaussianBlur stdDeviation="3" result="blur-11"/>
      <feFlood flood-opacity="0.161"/>
      <feComposite operator="in" in2="blur-11"/>
      <feComposite in="SourceGraphic"/>
    </filter>
    <filter id="Path_52289" x="65.556" y="19.068" width="21.93" height="23.78" filterUnits="userSpaceOnUse">
      <feOffset dx="4" dy="2" input="SourceAlpha"/>
      <feGaussianBlur stdDeviation="3" result="blur-12"/>
      <feFlood flood-opacity="0.161"/>
      <feComposite operator="in" in2="blur-12"/>
      <feComposite in="SourceGraphic"/>
    </filter>
    <filter id="Path_52281-2" x="26.472" y="54.764" width="22.997" height="29.693" filterUnits="userSpaceOnUse">
      <feOffset dx="4" dy="2" input="SourceAlpha"/>
      <feGaussianBlur stdDeviation="3" result="blur-13"/>
      <feFlood flood-opacity="0.161"/>
      <feComposite operator="in" in2="blur-13"/>
      <feComposite in="SourceGraphic"/>
    </filter>
    <filter id="Path_52282-2" x="20.365" y="58.916" width="27.042" height="25.542" filterUnits="userSpaceOnUse">
      <feOffset dx="4" dy="2" input="SourceAlpha"/>
      <feGaussianBlur stdDeviation="3" result="blur-14"/>
      <feFlood flood-opacity="0.161"/>
      <feComposite operator="in" in2="blur-14"/>
      <feComposite in="SourceGraphic"/>
    </filter>
    <filter id="Path_52283-2" x="21.81" y="44.981" width="22.118" height="27.999" filterUnits="userSpaceOnUse">
      <feOffset dx="4" dy="2" input="SourceAlpha"/>
      <feGaussianBlur stdDeviation="3" result="blur-15"/>
      <feFlood flood-opacity="0.161"/>
      <feComposite operator="in" in2="blur-15"/>
      <feComposite in="SourceGraphic"/>
    </filter>
    <filter id="Path_52284-2" x="16.896" y="47.32" width="24.675" height="25.662" filterUnits="userSpaceOnUse">
      <feOffset dx="4" dy="2" input="SourceAlpha"/>
      <feGaussianBlur stdDeviation="3" result="blur-16"/>
      <feFlood flood-opacity="0.161"/>
      <feComposite operator="in" in2="blur-16"/>
      <feComposite in="SourceGraphic"/>
    </filter>
    <filter id="Path_52285-2" x="20.653" y="36.036" width="21.765" height="25.418" filterUnits="userSpaceOnUse">
      <feOffset dx="4" dy="2" input="SourceAlpha"/>
      <feGaussianBlur stdDeviation="3" result="blur-17"/>
      <feFlood flood-opacity="0.161"/>
      <feComposite operator="in" in2="blur-17"/>
      <feComposite in="SourceGraphic"/>
    </filter>
    <filter id="Path_52286-2" x="17.5" y="35.84" width="22.043" height="25.619" filterUnits="userSpaceOnUse">
      <feOffset dx="4" dy="2" input="SourceAlpha"/>
      <feGaussianBlur stdDeviation="3" result="blur-18"/>
      <feFlood flood-opacity="0.161"/>
      <feComposite operator="in" in2="blur-18"/>
      <feComposite in="SourceGraphic"/>
    </filter>
    <filter id="Path_52287-2" x="21.399" y="26.951" width="22.287" height="23.807" filterUnits="userSpaceOnUse">
      <feOffset dx="4" dy="2" input="SourceAlpha"/>
      <feGaussianBlur stdDeviation="3" result="blur-19"/>
      <feFlood flood-opacity="0.161"/>
      <feComposite operator="in" in2="blur-19"/>
      <feComposite in="SourceGraphic"/>
    </filter>
    <filter id="Path_52288-2" x="19.384" y="25.62" width="21.148" height="25.134" filterUnits="userSpaceOnUse">
      <feOffset dx="4" dy="2" input="SourceAlpha"/>
      <feGaussianBlur stdDeviation="3" result="blur-20"/>
      <feFlood flood-opacity="0.161"/>
      <feComposite operator="in" in2="blur-20"/>
      <feComposite in="SourceGraphic"/>
    </filter>
    <filter id="Path_52289-2" x="23.265" y="19.068" width="21.93" height="23.78" filterUnits="userSpaceOnUse">
      <feOffset dx="4" dy="2" input="SourceAlpha"/>
      <feGaussianBlur stdDeviation="3" result="blur-21"/>
      <feFlood flood-opacity="0.161"/>
      <feComposite operator="in" in2="blur-21"/>
      <feComposite in="SourceGraphic"/>
    </filter>
  </defs>
  <g id="bronze" transform="translate(-874.999 14808.958)">
    <g id="Group_17936" data-name="Group 17936" transform="translate(10806.089 -15537.322)">
      <g id="Group_16477" data-name="Group 16477" transform="translate(-9923.59 735.864)">
        <g id="Group_16472" data-name="Group 16472" transform="translate(13.555 55.979)">
          <path id="Path_31290" data-name="Path 31290" d="M214.471,396.315l-14.735,47.151,14.309-5.169,8.82,12.4L237.6,403.543Z" transform="translate(-199.736 -396.315)" fill="#3b2f03"/>
          <path id="Path_31291" data-name="Path 31291" d="M273.546,401.629l24.421,56.837L283.658,453.3l-8.82,12.4-24.421-56.837Z" transform="translate(-236.327 -400.152)" fill="#665106"/>
        </g>
        <g id="Group_16474" data-name="Group 16474" transform="translate(0 0)">
          <g data-type="innerShadowGroup">
            <path id="Path_31292-2" data-name="Path 31292" d="M203.406,182.175a42.634,42.634,0,1,0,42.634,42.634,42.634,42.634,0,0,0-42.634-42.634Z" transform="translate(-159.031 -180.434)" fill="#665106"/>
            <g transform="matrix(1, 0, 0, 1, -7.5, -7.5)" filter="url(#Path_31292)">
              <path id="Path_31292-3" data-name="Path 31292" d="M203.406,182.175a42.634,42.634,0,1,0,42.634,42.634,42.634,42.634,0,0,0-42.634-42.634Z" transform="translate(-151.53 -172.93)" fill="#fff"/>
            </g>
          </g>
          <g id="Group_16473" data-name="Group 16473">
            <g transform="matrix(1, 0, 0, 1, -7.5, -7.5)" filter="url(#Path_31293)">
              <path id="Path_31293-2" data-name="Path 31293" d="M198.885,181.724a38.563,38.563,0,1,1-38.564,38.564,38.607,38.607,0,0,1,38.564-38.564Zm0-5.811a44.375,44.375,0,1,0,44.375,44.375,44.375,44.375,0,0,0-44.375-44.375Z" transform="translate(-147.01 -168.41)" fill="#665106"/>
            </g>
            <path id="Path_31294" data-name="Path 31294" d="M220.29,207.5a34.2,34.2,0,1,1-34.2,34.2,34.235,34.235,0,0,1,34.2-34.2Zm0-1.937a36.134,36.134,0,1,0,36.134,36.134,36.174,36.174,0,0,0-36.134-36.134Z" transform="translate(-175.915 -197.318)" fill="#665106"/>
          </g>
        </g>
      </g>
      <g transform="matrix(1, 0, 0, 1, -9931.09, 728.36)" filter="url(#Path_31298)">
        <path id="Path_31298-2" data-name="Path 31298" d="M18.5-9.9A28.236,28.236,0,0,1,14-10.25a21.18,21.18,0,0,1-3.6-.855q-1.43-.5-2.538-1.024a10.673,10.673,0,0,1-1.613-.883l-.5-.337L7.9-18.706a14.732,14.732,0,0,0,1.472.8,23.6,23.6,0,0,0,3.422,1.22,15.876,15.876,0,0,0,4.5.7A8.7,8.7,0,0,0,23.1-17.71a5.887,5.887,0,0,0,2.019-4.726,5.176,5.176,0,0,0-2.735-4.782A15.2,15.2,0,0,0,14.8-28.8h-.9l-1.795.056-.056-6.03h2.019q5.441,0,7.671-1.43t2.23-5.1a3.875,3.875,0,0,0-2.1-3.492,9.327,9.327,0,0,0-4.852-1.248,13.78,13.78,0,0,0-2.524.224,10.935,10.935,0,0,0-2.188.631q-.982.407-1.6.729t-1.374.8q-.757.477-.926.589L5.238-48.21a26.166,26.166,0,0,1,5.82-3.057,22.038,22.038,0,0,1,6.913-.869,17.437,17.437,0,0,1,4.894.673,14.53,14.53,0,0,1,4.179,1.949,9.285,9.285,0,0,1,2.973,3.352,9.789,9.789,0,0,1,1.108,4.684,11.322,11.322,0,0,1-.743,4.095,8.644,8.644,0,0,1-2.524,3.464A8.5,8.5,0,0,1,23.5-32a10.286,10.286,0,0,1,6.3,3.464,9.685,9.685,0,0,1,2.286,6.409,11.882,11.882,0,0,1-1.108,5.146A11,11,0,0,1,28-13.11a13.807,13.807,0,0,1-4.319,2.37A15.844,15.844,0,0,1,18.5-9.9ZM7.875-18.706h0Z" transform="translate(33.22 81.88)" fill="#725e15" stroke="#483c0f" stroke-width="0.7"/>
      </g>
    </g>
    <g id="Group_17937" data-name="Group 17937" transform="translate(934.895 -14782.89)">
      <g id="Group_17910" data-name="Group 17910" transform="translate(0 4.146)">
        <path id="Path_52271" data-name="Path 52271" d="M80.188,222.022s.041-.029.118-.089l.336-.27.549-.44.347-.281c.124-.1.25-.219.386-.336l.9-.793c.324-.3.663-.632,1.032-.985s.747-.753,1.152-1.17.809-.879,1.238-1.36.848-1.013,1.3-1.556c.227-.268.436-.561.656-.852s.448-.588.669-.9l.658-.95c.109-.163.225-.324.334-.489s.206-.339.322-.51c.206-.343.44-.685.654-1.032l.632-1.094c.221-.365.413-.753.619-1.137s.413-.774.6-1.181l.582-1.222q.268-.619.543-1.269a42.455,42.455,0,0,0,2.952-11.078l.159-1.371q.052-.683.1-1.35c.041-.446.047-.888.064-1.325s.041-.867.031-1.294,0-.848,0-1.263-.033-.826-.05-1.238c0-.206-.017-.4-.027-.6S97.017,184.2,97,184c-.033-.39-.066-.776-.1-1.154s-.091-.745-.134-1.111-.083-.72-.147-1.067c-.122-.694-.206-1.364-.353-1.994s-.246-1.238-.4-1.8-.262-1.1-.413-1.587-.275-.952-.413-1.369-.27-.795-.388-1.137c-.058-.169-.111-.332-.167-.481l-.161-.413c-.1-.256-.186-.475-.256-.654s-.122-.308-.159-.4-.058-.136-.058-.136.014.05.047.14l.149.413c.066.18.149.4.246.658l.159.413c.054.151.1.312.161.483L95,173.945c.13.413.256.879.4,1.371s.266,1.032.413,1.587.26,1.164.39,1.794.227,1.3.345,1.992c.064.347.095.7.142,1.067s.093.731.132,1.108l.093,1.15c.014.2.035.392.045.59s.017.4.027.6c.014.413.037.811.045,1.226v1.261c0,.425-.019.855-.033,1.292s-.023.875-.066,1.319l-.1,1.348q-.081.677-.161,1.366a42.434,42.434,0,0,1-2.943,11.051l-.541,1.267-.578,1.22c-.184.413-.4.791-.6,1.179s-.394.772-.619,1.135l-.63,1.094c-.206.355-.438.7-.652,1.032-.107.169-.206.339-.32.508s-.223.326-.332.489l-.654.952c-.221.308-.448.6-.665.9s-.427.584-.654.855c-.446.541-.855,1.08-1.29,1.554s-.826.952-1.238,1.364-.77.826-1.144,1.174-.706.691-1.032.989l-.894.8c-.134.12-.258.235-.38.339l-.345.285-.541.448-.332.279C80.225,221.987,80.188,222.022,80.188,222.022Z" transform="translate(-80.188 -170.7)" fill="#725d12" stroke="#715c11" stroke-width="0.3"/>
      </g>
      <g id="Group_17912" data-name="Group 17912" transform="translate(6.386)">
        <g transform="matrix(1, 0, 0, 1, -66.28, -26.07)" filter="url(#Path_52281)">
          <path id="Path_52281-3" data-name="Path 52281" d="M109.218,335.243a6.142,6.142,0,0,1-2.008-5.932,12.548,12.548,0,0,1,3.038-5.761,8.494,8.494,0,0,1,1.79,6.11,12.56,12.56,0,0,1-2.82,5.583" transform="translate(-40.82 -261.79)" fill="#725d12"/>
        </g>
        <g transform="matrix(1, 0, 0, 1, -66.28, -26.07)" filter="url(#Path_52282)">
          <path id="Path_52282-3" data-name="Path 52282" d="M77.564,351.212A6.145,6.145,0,0,1,80.34,345.6a12.566,12.566,0,0,1,6.221-1.926,8.46,8.46,0,0,1-3.055,5.586,12.637,12.637,0,0,1-5.943,1.957" transform="translate(-9.18 -277.75)" fill="#725d12"/>
        </g>
        <g transform="matrix(1, 0, 0, 1, -66.28, -26.07)" filter="url(#Path_52283)">
          <path id="Path_52283-3" data-name="Path 52283" d="M87.074,286.159a5.244,5.244,0,0,1-2.555-4.7,10.729,10.729,0,0,1,1.719-5.294,7.248,7.248,0,0,1,2.4,4.884,10.784,10.784,0,0,1-1.56,5.115" transform="translate(-12.7 -224.18)" fill="#725d12"/>
        </g>
        <g transform="matrix(1, 0, 0, 1, -66.28, -26.07)" filter="url(#Path_52284)">
          <path id="Path_52284-3" data-name="Path 52284" d="M60.907,295.152a5.25,5.25,0,0,1,1.519-5.133,10.757,10.757,0,0,1,4.954-2.529,7.258,7.258,0,0,1-1.759,5.15,10.738,10.738,0,0,1-4.721,2.512" transform="translate(13.47 -233.17)" fill="#725d12"/>
        </g>
        <g transform="matrix(1, 0, 0, 1, -66.28, -26.07)" filter="url(#Path_52285)">
          <path id="Path_52285-3" data-name="Path 52285" d="M82.505,240.238a4.261,4.261,0,0,1-3.23-2.9,8.7,8.7,0,0,1-.124-4.516,5.881,5.881,0,0,1,3.16,3.084,8.731,8.731,0,0,1,.194,4.335" transform="translate(-5.58 -189.78)" fill="#725d12"/>
        </g>
        <g transform="matrix(1, 0, 0, 1, -66.28, -26.07)" filter="url(#Path_52286)">
          <path id="Path_52286-3" data-name="Path 52286" d="M64.349,239.489a4.254,4.254,0,0,1-.231-4.335,8.676,8.676,0,0,1,3.1-3.284,5.879,5.879,0,0,1,.054,4.415,8.747,8.747,0,0,1-2.927,3.2" transform="translate(12.57 -189.03)" fill="#725d12"/>
        </g>
        <g transform="matrix(1, 0, 0, 1, -66.28, -26.07)" filter="url(#Path_52287)">
          <path id="Path_52287-3" data-name="Path 52287" d="M86.817,194.608a3.771,3.771,0,0,1-3.34-1.911,7.718,7.718,0,0,1-.947-3.887,5.171,5.171,0,0,1,3.3,2.083,7.82,7.82,0,0,1,.976,3.715" transform="translate(-10.47 -154.86)" fill="#725d12"/>
        </g>
        <g transform="matrix(1, 0, 0, 1, -66.28, -26.07)" filter="url(#Path_52288)">
          <path id="Path_52288-3" data-name="Path 52288" d="M73.9,189.494a3.761,3.761,0,0,1-1.011-3.715,7.707,7.707,0,0,1,2.079-3.418,5.2,5.2,0,0,1,.869,3.812,7.74,7.74,0,0,1-1.936,3.319" transform="translate(2.45 -149.74)" fill="#725d12"/>
        </g>
        <g transform="matrix(1, 0, 0, 1, -66.28, -26.07)" filter="url(#Path_52289)">
          <path id="Path_52289-3" data-name="Path 52289" d="M95.293,156.4s1.488-4.966-3.561-5.78A4.526,4.526,0,0,0,95.293,156.4Z" transform="translate(-21.01 -124.55)" fill="#725d12"/>
        </g>
      </g>
    </g>
    <g id="Group_17938" data-name="Group 17938" transform="translate(896.895 -14782.89)">
      <g id="Group_17910-2" data-name="Group 17910" transform="translate(4.02 4.146)">
        <path id="Path_52271-2" data-name="Path 52271" d="M97.127,222.022s-.041-.029-.118-.089l-.336-.27-.549-.44-.347-.281c-.124-.1-.25-.219-.386-.336l-.9-.793c-.324-.3-.663-.632-1.032-.985s-.747-.753-1.152-1.17-.809-.879-1.238-1.36-.848-1.013-1.3-1.556c-.227-.268-.436-.561-.656-.852s-.448-.588-.669-.9l-.658-.95c-.109-.163-.225-.324-.334-.489s-.206-.339-.322-.51c-.206-.343-.44-.685-.654-1.032l-.632-1.094c-.221-.365-.413-.753-.619-1.137s-.413-.774-.6-1.181l-.582-1.222q-.268-.619-.543-1.269a42.454,42.454,0,0,1-2.952-11.078l-.159-1.371q-.052-.683-.1-1.35c-.041-.446-.047-.888-.064-1.325s-.041-.867-.031-1.294,0-.848,0-1.263.033-.826.05-1.238c0-.206.017-.4.027-.6s.031-.394.045-.59c.033-.39.066-.776.1-1.154s.091-.745.134-1.111.083-.72.147-1.067c.122-.694.206-1.364.353-1.994s.246-1.238.4-1.8.262-1.1.413-1.587.275-.952.413-1.369.27-.795.388-1.137c.058-.169.111-.332.167-.481l.161-.413c.1-.256.186-.475.256-.654s.122-.308.159-.4.058-.136.058-.136-.014.05-.047.14l-.149.413c-.066.18-.149.4-.246.658l-.159.413c-.054.151-.1.312-.161.483l-.378,1.137c-.13.413-.256.879-.4,1.371s-.266,1.032-.413,1.587-.26,1.164-.39,1.794-.227,1.3-.345,1.992c-.064.347-.095.7-.142,1.067s-.093.731-.132,1.108l-.093,1.15c-.014.2-.035.392-.045.59s-.017.4-.027.6c-.014.413-.037.811-.045,1.226v1.261c0,.425.019.855.033,1.292s.023.875.066,1.319l.1,1.348q.081.677.161,1.366a42.434,42.434,0,0,0,2.943,11.051l.541,1.267.578,1.22c.184.413.4.791.6,1.179s.394.772.619,1.135l.63,1.094c.206.355.438.7.652,1.032.107.169.206.339.32.508s.223.326.332.489l.654.952c.221.308.448.6.665.9s.427.584.654.855c.446.541.855,1.08,1.29,1.554s.826.952,1.238,1.364.77.826,1.144,1.174.706.691,1.032.989l.894.8c.134.12.258.235.38.339l.345.285.541.448.332.279C97.089,221.987,97.127,222.022,97.127,222.022Z" transform="translate(-80.188 -170.7)" fill="#725d12" stroke="#715c11" stroke-width="0.3"/>
      </g>
      <g id="Group_17912-2" data-name="Group 17912" transform="translate(0 0)">
        <g transform="matrix(1, 0, 0, 1, -21.9, -26.07)" filter="url(#Path_52281-2)">
          <path id="Path_52281-4" data-name="Path 52281" d="M109.987,335.243A6.142,6.142,0,0,0,112,329.311a12.548,12.548,0,0,0-3.038-5.761,8.494,8.494,0,0,0-1.79,6.11,12.56,12.56,0,0,0,2.82,5.583" transform="translate(-75.63 -261.79)" fill="#725d12"/>
        </g>
        <g transform="matrix(1, 0, 0, 1, -21.9, -26.07)" filter="url(#Path_52282-2)">
          <path id="Path_52282-4" data-name="Path 52282" d="M86.517,351.212a6.145,6.145,0,0,0-2.776-5.616,12.566,12.566,0,0,0-6.221-1.926,8.46,8.46,0,0,0,3.055,5.585,12.637,12.637,0,0,0,5.943,1.957" transform="translate(-52.15 -277.75)" fill="#725d12"/>
        </g>
        <g transform="matrix(1, 0, 0, 1, -21.9, -26.07)" filter="url(#Path_52283-2)">
          <path id="Path_52283-4" data-name="Path 52283" d="M86.081,286.159a5.244,5.244,0,0,0,2.555-4.7,10.729,10.729,0,0,0-1.719-5.294,7.248,7.248,0,0,0-2.4,4.884,10.784,10.784,0,0,0,1.56,5.115" transform="translate(-57.71 -224.18)" fill="#725d12"/>
        </g>
        <g transform="matrix(1, 0, 0, 1, -21.9, -26.07)" filter="url(#Path_52284-2)">
          <path id="Path_52284-4" data-name="Path 52284" d="M67.2,295.152a5.25,5.25,0,0,0-1.519-5.133,10.757,10.757,0,0,0-4.954-2.529,7.258,7.258,0,0,0,1.759,5.15,10.738,10.738,0,0,0,4.721,2.512" transform="translate(-38.82 -233.17)" fill="#725d12"/>
        </g>
        <g transform="matrix(1, 0, 0, 1, -21.9, -26.07)" filter="url(#Path_52285-2)">
          <path id="Path_52285-4" data-name="Path 52285" d="M79.089,240.238a4.261,4.261,0,0,0,3.23-2.9,8.7,8.7,0,0,0,.124-4.516,5.881,5.881,0,0,0-3.16,3.084,8.731,8.731,0,0,0-.194,4.335" transform="translate(-53.26 -189.78)" fill="#725d12"/>
        </g>
        <g transform="matrix(1, 0, 0, 1, -21.9, -26.07)" filter="url(#Path_52286-2)">
          <path id="Path_52286-4" data-name="Path 52286" d="M66.97,239.489a4.254,4.254,0,0,0,.231-4.335,8.675,8.675,0,0,0-3.1-3.284,5.879,5.879,0,0,0-.054,4.415,8.747,8.747,0,0,0,2.927,3.2" transform="translate(-41.14 -189.03)" fill="#725d12"/>
        </g>
        <g transform="matrix(1, 0, 0, 1, -21.9, -26.07)" filter="url(#Path_52287-2)">
          <path id="Path_52287-4" data-name="Path 52287" d="M82.53,194.608a3.771,3.771,0,0,0,3.34-1.911,7.718,7.718,0,0,0,.947-3.887,5.171,5.171,0,0,0-3.3,2.083,7.82,7.82,0,0,0-.976,3.715" transform="translate(-56.13 -154.86)" fill="#725d12"/>
        </g>
        <g transform="matrix(1, 0, 0, 1, -21.9, -26.07)" filter="url(#Path_52288-2)">
          <path id="Path_52288-4" data-name="Path 52288" d="M74.785,189.494a3.761,3.761,0,0,0,1.011-3.715,7.707,7.707,0,0,0-2.079-3.418,5.2,5.2,0,0,0-.869,3.812,7.74,7.74,0,0,0,1.936,3.319" transform="translate(-48.38 -149.74)" fill="#725d12"/>
        </g>
        <g transform="matrix(1, 0, 0, 1, -21.9, -26.07)" filter="url(#Path_52289-2)">
          <path id="Path_52289-4" data-name="Path 52289" d="M91.773,156.4s-1.488-4.966,3.561-5.78A4.526,4.526,0,0,1,91.773,156.4Z" transform="translate(-63.3 -124.55)" fill="#725d12"/>
        </g>
      </g>
    </g>
  </g>
</svg>
