<svg xmlns="http://www.w3.org/2000/svg" width="29.935" height="25.005" viewBox="0 0 29.935 25.005">
  <g id="copy" transform="translate(-333 -46.666)">
    <path id="Path_31369" data-name="Path 31369" d="M344.6,68.156l-2.212,2.212a4.791,4.791,0,0,1-6.775,0l-.214-.214a4.792,4.792,0,0,1,0-6.776l8.146-8.146a4.792,4.792,0,0,1,6.776,0l.214.214a4.792,4.792,0,0,1,0,6.776l-1.953,1.952" transform="translate(0 -1.099)" fill="none" stroke="#888686" stroke-linecap="round" stroke-linejoin="round" stroke-width="2"/>
    <path id="Path_31370" data-name="Path 31370" d="M353.811,51.208l2.139-2.139a4.79,4.79,0,0,1,6.775,0h0a4.791,4.791,0,0,1,0,6.775L354.47,64.1a4.791,4.791,0,0,1-6.775,0h0a4.792,4.792,0,0,1,0-6.776l1.953-1.953" transform="translate(-2.193)" fill="none" stroke="#888686" stroke-linecap="round" stroke-linejoin="round" stroke-width="2"/>
  </g>
</svg>
