<svg xmlns="http://www.w3.org/2000/svg" width="122.144" height="122.184" viewBox="0 0 122.144 122.184">
  <g id="done" transform="translate(-193.081 -442.081)">
    <g id="Group_10820" data-name="Group 10820" transform="translate(193.081 442.081)">
      <path id="Path_16343" data-name="Path 16343" d="M193.081,506.756V499.6c.1-.859.2-1.716.291-2.575a61.28,61.28,0,0,1,50.281-53.989c2.3-.406,4.626-.639,6.942-.951h7.16c2.042.256,4.1.442,6.13.783a59.449,59.449,0,0,1,33.029,16.766c13.726,13.714,19.768,30.386,18.014,49.689a58.3,58.3,0,0,1-14.915,34.141c-11.51,12.926-25.989,19.886-43.271,20.727a58.072,58.072,0,0,1-33.7-8.514C207.19,546,197.457,531.992,194.035,513.69,193.6,511.4,193.393,509.069,193.081,506.756Zm53.495,8.749c-3.641-2.911-7.148-5.712-10.654-8.514-3.073-2.457-6.121-4.947-9.229-7.363a4.669,4.669,0,0,0-6.848.792c-1.586,2.2-1.08,4.882,1.318,6.8q11.169,8.948,22.349,17.879c2.852,2.281,5.253,2.09,7.684-.639q10.069-11.314,20.133-22.637,8.242-9.27,16.484-18.541a5.029,5.029,0,0,0,1.56-4.085,4.476,4.476,0,0,0-3.281-3.982,4.7,4.7,0,0,0-5.212,1.7q-12.511,14.091-25.036,28.17C252.782,508.531,249.722,511.971,246.576,515.505Z" transform="translate(-193.081 -442.081)" fill="#5972ff"/>
    </g>
  </g>
</svg>
