<svg xmlns="http://www.w3.org/2000/svg" width="24.95" height="25" viewBox="0 0 24.95 25">
  <g id="location" transform="translate(-9.798 -258.8)" opacity="0.8">
    <path id="Path_16340" data-name="Path 16340" d="M102.743,258.8c.5.1,1.01.158,1.5.295a7.032,7.032,0,0,1,3.994,2.861,7.179,7.179,0,0,1,1.276,4.635,7.39,7.39,0,0,1-1.169,3.5c-1.086,1.745-2.184,3.483-3.219,5.258-.682,1.17-1.262,2.4-1.887,3.6a1.041,1.041,0,0,1-1.2.649,1.112,1.112,0,0,1-.779-.672c-.75-1.459-1.5-2.919-2.261-4.371a48.632,48.632,0,0,0-2.838-4.517,6.714,6.714,0,0,1-1.125-4.688,7.142,7.142,0,0,1,5.117-6.227,9.873,9.873,0,0,1,1.428-.281l.237-.043Zm-.485,10.411a3.123,3.123,0,1,0-3.12-3.111A3.12,3.12,0,0,0,102.258,269.211Z" transform="translate(-79.982)"/>
    <path id="Path_16341" data-name="Path 16341" d="M9.8,512.986a8.08,8.08,0,0,1,.476-1.16,4.876,4.876,0,0,1,1.966-1.7,14.054,14.054,0,0,1,3.536-1.277,1.029,1.029,0,0,1,1.265.748,1.048,1.048,0,0,1-.752,1.266c-.9.3-1.8.583-2.686.924a3.807,3.807,0,0,0-1.4.947.777.777,0,0,0-.013,1.237,4.315,4.315,0,0,0,1.451.964,17.093,17.093,0,0,0,4.752,1.276,27.62,27.62,0,0,0,4.858.242,21.689,21.689,0,0,0,7.08-1.269,6.172,6.172,0,0,0,1.8-.993,2.46,2.46,0,0,0,.261-.255.759.759,0,0,0-.011-1.165,3.78,3.78,0,0,0-1.436-.983c-.859-.334-1.738-.62-2.617-.9a1.056,1.056,0,0,1-.7-1.579.978.978,0,0,1,1.089-.466,12.04,12.04,0,0,1,4.427,1.815,3.574,3.574,0,0,1,1.5,1.98,2.9,2.9,0,0,1-1.053,3.027,8.444,8.444,0,0,1-2.919,1.618,23.836,23.836,0,0,1-6.8,1.225c-.128.007-.256.03-.383.046H21.055c-.071-.013-.141-.032-.213-.039-1.249-.134-2.505-.222-3.746-.411a14.73,14.73,0,0,1-4.865-1.55,4.8,4.8,0,0,1-1.925-1.639,8.587,8.587,0,0,1-.509-1.194Z" transform="translate(0 -234.752)"/>
    <path id="Path_16342" data-name="Path 16342" d="M199.363,362.258a1.032,1.032,0,1,1-1.043-1.029A1.037,1.037,0,0,1,199.363,362.258Z" transform="translate(-176.057 -96.177)"/>
  </g>
</svg>
