<svg id="lock" xmlns="http://www.w3.org/2000/svg" width="39.304" height="55.382" viewBox="0 0 39.304 55.382">
  <path id="Path_52290" data-name="Path 52290" d="M37.783,27.923H12.771A3.573,3.573,0,0,0,9.2,31.5V49.361a3.573,3.573,0,0,0,3.573,3.573H37.783a3.573,3.573,0,0,0,3.573-3.573V31.5A3.573,3.573,0,0,0,37.783,27.923ZM12.771,24.35A7.146,7.146,0,0,0,5.625,31.5V49.361a7.146,7.146,0,0,0,7.146,7.146H37.783a7.146,7.146,0,0,0,7.146-7.146V31.5a7.146,7.146,0,0,0-7.146-7.146Zm0-10.719a12.506,12.506,0,0,1,25.011,0V24.35H34.209V13.631a8.933,8.933,0,1,0-17.865,0V24.35H12.771Z" transform="translate(-5.625 -1.125)" fill="#fff" fill-rule="evenodd"/>
</svg>
