<svg xmlns="http://www.w3.org/2000/svg" xmlns:xlink="http://www.w3.org/1999/xlink" width="107.019" height="104.362" viewBox="0 0 107.019 104.362">
  <defs>
    <filter id="Path_195" x="6.97" y="4.538" width="93.107" height="93.107" filterUnits="userSpaceOnUse">
      <feOffset dy="1" input="SourceAlpha"/>
      <feGaussianBlur stdDeviation="2" result="blur"/>
      <feFlood flood-opacity="0.161"/>
      <feComposite operator="in" in2="blur"/>
      <feComposite in="SourceGraphic"/>
    </filter>
    <filter id="Path_31179" x="0" y="0" width="42.14" height="87.736" filterUnits="userSpaceOnUse">
      <feOffset dy="1" input="SourceAlpha"/>
      <feGaussianBlur stdDeviation="1" result="blur-2"/>
      <feFlood flood-opacity="0.161"/>
      <feComposite operator="in" in2="blur-2"/>
      <feComposite in="SourceGraphic"/>
    </filter>
    <filter id="Path_31180" x="18.539" y="84.024" width="30.798" height="19.97" filterUnits="userSpaceOnUse">
      <feOffset dy="1" input="SourceAlpha"/>
      <feGaussianBlur stdDeviation="1" result="blur-3"/>
      <feFlood flood-opacity="0.161"/>
      <feComposite operator="in" in2="blur-3"/>
      <feComposite in="SourceGraphic"/>
    </filter>
    <filter id="Path_31181" x="55.092" y="50.415" width="51.927" height="53.947" filterUnits="userSpaceOnUse">
      <feOffset dy="1" input="SourceAlpha"/>
      <feGaussianBlur stdDeviation="1" result="blur-4"/>
      <feFlood flood-opacity="0.161"/>
      <feComposite operator="in" in2="blur-4"/>
      <feComposite in="SourceGraphic"/>
    </filter>
    <filter id="Path_31182" x="70.359" y="2.364" width="35.28" height="40.714" filterUnits="userSpaceOnUse">
      <feOffset dy="1" input="SourceAlpha"/>
      <feGaussianBlur stdDeviation="1" result="blur-5"/>
      <feFlood flood-opacity="0.161"/>
      <feComposite operator="in" in2="blur-5"/>
      <feComposite in="SourceGraphic"/>
    </filter>
  </defs>
  <g id="nothing_fvrt" data-name="nothing fvrt" transform="translate(-160.578 -454.094)">
    <g id="Group_16392" data-name="Group 16392" transform="translate(67.83 351.402)">
      <g id="Group_9" data-name="Group 9" transform="translate(99.17 108.637)">
        <g transform="matrix(1, 0, 0, 1, -6.42, -5.95)" filter="url(#Path_195)">
          <path id="Path_195-2" data-name="Path 195" d="M40.553,0A40.553,40.553,0,1,1,0,40.553,40.553,40.553,0,0,1,40.553,0Z" transform="translate(12.97 9.54)" fill="#fff"/>
        </g>
        <path id="Path_31178" data-name="Path 31178" d="M38.378,0A38.378,38.378,0,1,1,0,38.378,38.378,38.378,0,0,1,38.378,0Z" transform="translate(8.724 5.767)" fill="none" stroke="#5972ff" stroke-width="2"/>
      </g>
    </g>
    <g id="Group_16393" data-name="Group 16393" transform="translate(-1.422 -136.373)">
      <g transform="matrix(1, 0, 0, 1, 162, 590.47)" filter="url(#Path_31179)">
        <path id="Path_31179-2" data-name="Path 31179" d="M110.251,184.984a48.541,48.541,0,0,1,20.487-76.347" transform="translate(-94.17 -104.06)" fill="none" stroke="#5972ff" stroke-linecap="round" stroke-miterlimit="10" stroke-width="4"/>
      </g>
      <g transform="matrix(1, 0, 0, 1, 162, 590.47)" filter="url(#Path_31180)">
        <path id="Path_31180-2" data-name="Path 31180" d="M178.928,379.328a48.3,48.3,0,0,1-19.644-8.817" transform="translate(-134.94 -281.69)" fill="none" stroke="#5972ff" stroke-linecap="round" stroke-miterlimit="10" stroke-width="4"/>
      </g>
      <g transform="matrix(1, 0, 0, 1, 162, 590.47)" filter="url(#Path_31181)">
        <path id="Path_31181-2" data-name="Path 31181" d="M312.706,264.105a48.548,48.548,0,0,1-41.491,43.512" transform="translate(-210.86 -209.51)" fill="none" stroke="#5972ff" stroke-linecap="round" stroke-miterlimit="10" stroke-width="4"/>
      </g>
      <g transform="matrix(1, 0, 0, 1, 162, 590.47)" filter="url(#Path_31182)">
        <path id="Path_31182-2" data-name="Path 31182" d="M320.04,116.383a48.65,48.65,0,0,1,24.1,29.538" transform="translate(-243.98 -109.32)" fill="none" stroke="#5972ff" stroke-linecap="round" stroke-miterlimit="10" stroke-width="4"/>
      </g>
    </g>
    <path id="black-star" d="M18.049.589l4.407,10.3,11.182,1a.9.9,0,0,1,.513,1.567h0l-8.463,7.381,2.5,10.932a.9.9,0,0,1-1.365.953l-9.6-5.735L7.593,32.75a.9.9,0,0,1-1.334-.97h0l2.5-10.932L.305,13.462a.9.9,0,0,1,.535-1.57l11.14-1L16.4.589a.9.9,0,0,1,1.654,0Z" transform="translate(196.772 487.727)" fill="none" stroke="#5972ff" stroke-width="2"/>
  </g>
</svg>
