<svg xmlns="http://www.w3.org/2000/svg" width="17.81" height="23.006" viewBox="0 0 17.81 23.006">
  <g id="p" transform="translate(-232.041 -63.87)">
    <path id="Path_31363" data-name="Path 31363" d="M234.747,77.173a.455.455,0,0,0,.662-.33c.06-.232.205-.818.27-1.061a.639.639,0,0,0-.19-.736,3.817,3.817,0,0,1-.872-2.593,6.258,6.258,0,0,1,6.506-6.329c3.548,0,5.5,2.169,5.5,5.065,0,3.81-1.686,7.025-4.189,7.025a2.045,2.045,0,0,1-2.086-2.544c.4-1.675,1.166-3.481,1.166-4.69A1.769,1.769,0,0,0,239.73,69c-1.414,0-2.549,1.462-2.549,3.42a5.076,5.076,0,0,0,.422,2.091s-1.446,6.128-1.7,7.2a14.789,14.789,0,0,0-.039,5.021.175.175,0,0,0,.314.076,14.094,14.094,0,0,0,2.385-4.324c.163-.588.93-3.632.93-3.632a3.786,3.786,0,0,0,3.227,1.646c4.248,0,7.13-3.872,7.13-9.056,0-3.92-3.32-7.571-8.365-7.571-6.279,0-9.444,4.5-9.444,8.255C232.041,74.4,232.9,76.42,234.747,77.173Z" fill="#888686"/>
  </g>
</svg>
