<svg xmlns="http://www.w3.org/2000/svg" width="101.135" height="101.136" viewBox="0 0 101.135 101.136">
  <g id="premium" transform="translate(11268.35 -726.346)">
    <g id="Group_16481" data-name="Group 16481" transform="translate(-11268.35 726.346)">
      <g id="Group_16458" data-name="Group 16458" transform="translate(0 0)">
        <path id="Path_31281" data-name="Path 31281" d="M342.907,118.137l-2.5,3.068-1.967,2.412-.907,1.125a4.936,4.936,0,0,0-1.052,3.893l.728,4.509.632,3.91a4.953,4.953,0,0,1-3.124,5.4l-3.691,1.408-.875.332-3.383,1.287a4.922,4.922,0,0,0-2.857,2.857l-1.627,4.265-1.409,3.691a4.947,4.947,0,0,1-5.4,3.124l-3.91-.631-4.5-.728a4.97,4.97,0,0,0-3.9,1.044l-3.546,2.882-3.059,2.493a4.934,4.934,0,0,1-6.233,0l-3.059-2.493-3.546-2.882a4.99,4.99,0,0,0-3.91-1.044l-4.5.728-3.9.631a4.942,4.942,0,0,1-5.4-3.124l-1.408-3.7-1.627-4.257a4.9,4.9,0,0,0-2.857-2.857l-3.383-1.287-.883-.332-3.69-1.408a4.947,4.947,0,0,1-3.109-5.407l.623-3.894.728-4.516a4.906,4.906,0,0,0-1.052-3.893l-.907-1.125-1.975-2.419-2.493-3.06a4.957,4.957,0,0,1,0-6.241l2.493-3.051,2.881-3.537a4.951,4.951,0,0,0,1.052-3.91l-.728-4.509-.623-3.9a4.932,4.932,0,0,1,3.109-5.4l3.7-1.409,4.257-1.627a4.88,4.88,0,0,0,2.857-2.857l1.627-4.257,1.408-3.7a4.938,4.938,0,0,1,5.4-3.116l3.9.632,4.5.72a4.936,4.936,0,0,0,3.91-1.052l3.529-2.874,3.076-2.5a4.961,4.961,0,0,1,6.233,0l3.067,2.5,3.538,2.874a4.916,4.916,0,0,0,3.9,1.052l4.5-.72,3.91-.632a4.943,4.943,0,0,1,5.4,3.116l1.409,3.691,1.627,4.265a4.9,4.9,0,0,0,2.857,2.857l4.257,1.627,3.691,1.409a4.938,4.938,0,0,1,3.124,5.39l-.632,3.91-.728,4.509a4.953,4.953,0,0,0,1.052,3.9l2.874,3.538L342.9,111.9A4.948,4.948,0,0,1,342.907,118.137Z" transform="translate(-242.876 -64.449)" fill="#5972ff"/>
      </g>
      <g id="check_4_" data-name="check (4)" transform="translate(25.302 32.45)">
        <path id="Path_258" data-name="Path 258" d="M120.658,103.54,96.15,128.047,84.917,116.815a4.332,4.332,0,1,0-6.127,6.127l14.3,14.3a4.332,4.332,0,0,0,3.063,1.269h0a4.333,4.333,0,0,0,3.063-1.269l27.571-27.571a4.332,4.332,0,0,0-6.127-6.127Z" transform="translate(-77.521 -102.271)" fill="#fff"/>
      </g>
    </g>
  </g>
</svg>
