<svg xmlns="http://www.w3.org/2000/svg" width="17.333" height="17.333" viewBox="0 0 17.333 17.333">
  <g id="premium" transform="translate(0)">
    <g id="Group_16481" data-name="Group 16481" transform="translate(0 0)">
      <g id="Group_16458" data-name="Group 16458">
        <path id="Path_31281" data-name="Path 31281" d="M260.02,73.65l-.429.526-.337.413-.155.193a.846.846,0,0,0-.18.667l.125.773.108.67a.849.849,0,0,1-.535.925l-.633.241-.15.057-.58.221a.844.844,0,0,0-.49.49l-.279.731-.241.633a.848.848,0,0,1-.925.535l-.67-.108-.771-.125a.852.852,0,0,0-.669.179l-.608.494-.524.427a.846.846,0,0,1-1.068,0l-.524-.427-.608-.494a.855.855,0,0,0-.67-.179l-.771.125-.669.108a.847.847,0,0,1-.925-.535l-.241-.634-.279-.73a.84.84,0,0,0-.49-.49l-.58-.221-.151-.057-.632-.241a.848.848,0,0,1-.533-.927l.107-.667.125-.774a.841.841,0,0,0-.18-.667l-.155-.193-.338-.415-.427-.524a.85.85,0,0,1,0-1.07l.427-.523.494-.606a.848.848,0,0,0,.18-.67l-.125-.773-.107-.669a.845.845,0,0,1,.533-.925l.634-.241.73-.279a.836.836,0,0,0,.49-.49l.279-.73.241-.634a.846.846,0,0,1,.925-.534l.669.108.771.123a.846.846,0,0,0,.67-.18l.6-.493.527-.429a.85.85,0,0,1,1.068,0l.526.429.606.493a.843.843,0,0,0,.669.18l.771-.123.67-.108a.847.847,0,0,1,.925.534l.241.633.279.731a.839.839,0,0,0,.49.49l.73.279.633.241a.846.846,0,0,1,.535.924l-.108.67-.125.773a.849.849,0,0,0,.18.669l.492.606.427.524A.848.848,0,0,1,260.02,73.65Z" transform="translate(-242.876 -64.449)" fill="#fff"/>
      </g>
      <g id="check_4_" data-name="check (4)" transform="translate(4.336 5.561)">
        <path id="Path_258" data-name="Path 258" d="M84.914,102.488l-4.2,4.2-1.925-1.925a.742.742,0,1,0-1.05,1.05l2.45,2.45a.742.742,0,0,0,.525.218h0a.743.743,0,0,0,.525-.217l4.725-4.725a.743.743,0,0,0-1.05-1.05Z" transform="translate(-77.521 -102.271)" fill="#5972ff"/>
      </g>
    </g>
  </g>
</svg>
