<svg xmlns="http://www.w3.org/2000/svg" width="20.613" height="20.286" viewBox="0 0 20.613 20.286">
  <path id="share-lines" d="M5.752,6.08a3.749,3.749,0,0,1,2.66,1.1,3.859,3.859,0,0,1,.422.5l5.937-2.47a3.711,3.711,0,0,1-.29-1.451,3.766,3.766,0,1,1,1.1,2.66,3.7,3.7,0,0,1-.327-.375L9.283,8.534a3.715,3.715,0,0,1,.237,1.309,3.907,3.907,0,0,1-.09.829l5.969,2.8q.087-.1.19-.206a3.759,3.759,0,1,1-1.1,2.66,3.693,3.693,0,0,1,.385-1.652l-5.763-2.7a3.651,3.651,0,0,1-.686.934A3.762,3.762,0,1,1,5.763,6.08Zm14.471-4.3a2.8,2.8,0,1,0,.823,1.984A2.8,2.8,0,0,0,20.224,1.779Zm0,12.155a2.8,2.8,0,1,0,.823,1.984A2.8,2.8,0,0,0,20.224,13.933ZM7.737,7.853A2.8,2.8,0,1,0,8.56,9.838,2.8,2.8,0,0,0,7.737,7.853Z" transform="translate(-1.7 0.3)" stroke="#000" stroke-width="0.6" opacity="0.6"/>
</svg>
