<svg xmlns="http://www.w3.org/2000/svg" width="19.413" height="25.552" viewBox="0 0 19.413 25.552">
  <path id="shop" d="M605.554,499.464a9.333,9.333,0,0,1,.93.241,4.441,4.441,0,0,1,3.053,3.7,5.487,5.487,0,0,1,.023.8c0,.292,0,.583,0,.914.11,0,.2,0,.3,0,.461.01.927-.01,1.384.041a2.231,2.231,0,0,1,1.861,1.869c.077.471.106.95.151,1.425q.118,1.258.231,2.517c.055.613.1,1.227.16,1.84.075.831.154,1.661.229,2.492.054.6.1,1.194.158,1.792.077.855.158,1.709.233,2.565.056.629.107,1.259.16,1.889.017.2.038.4.049.6a2.137,2.137,0,0,1-1.717,2.2,1.947,1.947,0,0,1-.481.056q-7.223,0-14.446,0a2.171,2.171,0,0,1-2.164-2.166c.007-.5.069-1,.112-1.5.038-.452.085-.9.127-1.354q.118-1.295.235-2.59c.055-.621.1-1.243.159-1.864.074-.823.155-1.645.229-2.468.055-.6.1-1.211.158-1.816.075-.839.15-1.678.233-2.516a9.663,9.663,0,0,1,.157-1.276,2.231,2.231,0,0,1,2.231-1.744c.412,0,.824,0,1.267,0,0-.354,0-.684,0-1.015a4.94,4.94,0,0,1,.152-1.347,4.531,4.531,0,0,1,3.749-3.249.4.4,0,0,0,.106-.043Zm-.525,23.631h5.6c.5,0,.991,0,1.486,0a.859.859,0,0,0,.94-.969c-.038-.623-.1-1.244-.154-1.865-.089-.976-.188-1.951-.276-2.927-.089-1-.167-2-.257-3-.1-1.17-.22-2.338-.327-3.508-.1-1.137-.2-2.275-.3-3.413a1.008,1.008,0,0,0-1.01-.924c-.324.013-.649,0-.974,0-.245,0-.247,0-.247.241,0,.561,0,1.121,0,1.681,0,.4.008.8-.006,1.194a.645.645,0,0,1-.844.587.631.631,0,0,1-.48-.65q-.006-1.413,0-2.825c0-.16-.034-.232-.215-.231q-2.923.008-5.846,0c-.179,0-.222.067-.217.229.009.324,0,.649,0,.974,0,.633.008,1.267-.005,1.9a.658.658,0,0,1-.947.567.649.649,0,0,1-.381-.649c0-.917,0-1.835,0-2.752,0-.265,0-.265-.272-.266-.317,0-.634.012-.95,0a.984.984,0,0,0-1,.876c-.1.918-.17,1.839-.252,2.758-.053.606-.1,1.211-.158,1.816-.076.839-.156,1.678-.231,2.516-.056.622-.1,1.243-.161,1.865q-.113,1.245-.23,2.492c-.042.459-.086.919-.126,1.379-.059.686-.112,1.372-.174,2.058a.69.69,0,0,0,.437.718,1.352,1.352,0,0,0,.56.126C600.352,523.1,602.69,523.095,605.029,523.095ZM601.942,505.1h6.293c0-.463,0-.908,0-1.353a2.217,2.217,0,0,0-.04-.312,3.15,3.15,0,0,0-6.12-.379A7.968,7.968,0,0,0,601.942,505.1Z" transform="translate(-595.365 -499.164)" stroke="#000" stroke-width="0.6" opacity="0.3"/>
</svg>
