<svg xmlns="http://www.w3.org/2000/svg" width="27.888" height="23.006" viewBox="0 0 27.888 23.006">
  <path id="telegram" d="M308.611,62.161a.594.594,0,0,0-.405-.442,2.083,2.083,0,0,0-1.1.078s-24.435,8.782-25.83,9.755c-.3.21-.4.331-.451.474-.242.692.51,1,.51,1l6.3,2.052a.69.69,0,0,0,.319-.019c1.433-.905,14.415-9.1,15.164-9.378.118-.035.205,0,.182.086-.3,1.052-11.575,11.074-11.575,11.074a.556.556,0,0,0-.07.116l-.014-.008-.588,6.246s-.245,1.914,1.668,0c1.351-1.35,2.657-2.48,3.311-3.029,2.165,1.495,4.5,3.148,5.5,4.014a1.75,1.75,0,0,0,1.275.492c.955-.036,1.221-1.085,1.221-1.085s4.453-17.921,4.6-20.322c.014-.236.035-.385.036-.547A2.019,2.019,0,0,0,308.611,62.161Z" transform="translate(-280.779 -61.667)" fill="#888686"/>
</svg>
