<svg xmlns="http://www.w3.org/2000/svg" width="28.309" height="23.006" viewBox="0 0 28.309 23.006">
  <path id="tweeter" d="M203.219,75.145A16.519,16.519,0,0,0,228.63,60.477a11.8,11.8,0,0,0,2.9-3.007,11.6,11.6,0,0,1-3.336.914,5.81,5.81,0,0,0,2.553-3.214,11.606,11.606,0,0,1-3.687,1.41,5.812,5.812,0,0,0-9.9,5.3A16.483,16.483,0,0,1,205.19,55.81a5.816,5.816,0,0,0,1.8,7.755,5.789,5.789,0,0,1-2.631-.727,5.816,5.816,0,0,0,4.658,5.77,5.833,5.833,0,0,1-2.622.1,5.812,5.812,0,0,0,5.425,4.033A11.678,11.678,0,0,1,203.219,75.145Z" transform="translate(-203.219 -54.748)" fill="#888686"/>
</svg>
