<svg xmlns="http://www.w3.org/2000/svg" width="25.981" height="14.417" viewBox="0 0 25.981 14.417">
  <path id="view_1_" data-name="view (1)" d="M12.991,2.908A4.294,4.294,0,1,1,9.959,4.176a4.294,4.294,0,0,1,3.032-1.268ZM.224,6.608a22.561,22.561,0,0,1,2.182-2.3A15.392,15.392,0,0,1,12.475-.012,16.131,16.131,0,0,1,23.119,4.073,25.773,25.773,0,0,1,25.77,6.61a.846.846,0,0,1,.053,1.057,16.887,16.887,0,0,1-3.251,3.469,14.7,14.7,0,0,1-9.16,3.266,16.067,16.067,0,0,1-9.357-3.036A18.889,18.889,0,0,1,.183,7.692a.833.833,0,0,1,.04-1.085Zm3.3-1.057a21.013,21.013,0,0,0-1.6,1.626A17.094,17.094,0,0,0,5.014,10,14.431,14.431,0,0,0,13.4,12.736a13.042,13.042,0,0,0,8.12-2.9,14.976,14.976,0,0,0,2.537-2.6,23.349,23.349,0,0,0-2.008-1.873A14.554,14.554,0,0,0,12.5,1.656a13.716,13.716,0,0,0-8.97,3.886ZM11.919,3.9a1.662,1.662,0,1,1-1.177.487A1.664,1.664,0,0,1,11.919,3.9Z" transform="translate(-0.002 0.015)" fill-rule="evenodd" opacity="0.6"/>
</svg>
