<svg xmlns="http://www.w3.org/2000/svg" width="124.738" height="90.865" viewBox="0 0 124.738 90.865">
  <g id="warrior" transform="translate(-151.631 -397)">
    <g id="Group_16613" data-name="Group 16613" transform="translate(12945.484 370.136)">
      <g id="Group_16611" data-name="Group 16611" transform="translate(-12793.854 26.864)">
        <g id="Group_16511" data-name="Group 16511" transform="translate(0 0)">
          <g id="Group_16456" data-name="Group 16456" transform="translate(0 0)">
            <g id="Group_16384" data-name="Group 16384">
              <g id="Group_16356" data-name="Group 16356" transform="translate(0 53.085)">
                <g id="Group_16352" data-name="Group 16352" transform="translate(0 0.004)">
                  <g id="Group_16351" data-name="Group 16351">
                    <g id="Group_16350" data-name="Group 16350">
                      <path id="Path_31249" data-name="Path 31249" d="M181.695,197.516H144.858l7.818-12.008-7.818-12.885h36.837Z" transform="translate(-144.858 -172.623)" fill="#084092"/>
                    </g>
                  </g>
                </g>
                <g id="Group_16355" data-name="Group 16355" transform="translate(87.896)">
                  <g id="Group_16354" data-name="Group 16354">
                    <g id="Group_16353" data-name="Group 16353">
                      <path id="Path_31250" data-name="Path 31250" d="M213.645,185.509l7.823,12.005H184.627V172.621h36.842Z" transform="translate(-184.627 -172.621)" fill="#084092"/>
                    </g>
                  </g>
                </g>
              </g>
              <g id="Group_16363" data-name="Group 16363" transform="translate(17.182)">
                <g id="Group_16358" data-name="Group 16358" transform="translate(0)">
                  <g id="Group_16357" data-name="Group 16357" transform="translate(0)">
                    <path id="Path_31258" data-name="Path 31258" d="M39.6,0A39.6,39.6,0,1,1,0,39.6,39.6,39.6,0,0,1,39.6,0Z" transform="translate(0 78.178) rotate(-80.783)" fill="#f4bc18"/>
                  </g>
                </g>
                <g id="Group_16360" data-name="Group 16360" transform="translate(2.271 2.563)">
                  <g id="Group_16359" data-name="Group 16359">
                    <path id="Path_31251" data-name="Path 31251" d="M239.347,192.534a18.158,18.158,0,0,0-.223-2.02c-.1-.732-.223-1.525-.334-2.369-.031-.245-.079-.493-.135-.738l-.1-.429c-.119-.486-.254-.979-.367-1.5v-.007a23.032,23.032,0,0,0-.827-2.9,41.581,41.581,0,0,0-6.637-12.691,43.165,43.165,0,0,0-12.213-10.916,42.5,42.5,0,0,0-15.44-5.532,45,45,0,0,0-6.5-.493H196.4a41.355,41.355,0,0,0-17.317,3.72c-1.121.517-2,.924-2.584,1.218-.564.334-.866.508-.866.508s-.309.175-.875.517c-.285.166-.636.374-1.041.612-.208.126-.422.254-.661.389-.221.159-.46.343-.707.517-.5.358-1.041.754-1.644,1.191-.3.223-.612.453-.939.685-.3.254-.6.533-.931.811-.643.572-1.326,1.176-2.036,1.812-.692.667-1.35,1.43-2.082,2.186a43.681,43.681,0,0,0-7.689,12.076,40.927,40.927,0,0,0-2.091,6.29c-.126.493-.245.992-.349,1.5-.031.141-.064.285-.088.429a42.282,42.282,0,0,0-.833,7.831c-.009.4-.009.8,0,1.2,0,.469.015.939.04,1.4.007.135.016.272.022.4a42.749,42.749,0,0,0,2.8,12.976c.022.055.04.111.062.166a43,43,0,0,0,5.534,9.955c.6.82,1.216,1.6,1.837,2.321.7.789,1.353,1.551,2.02,2.243.7.659,1.366,1.28,1.987,1.868.318.287.612.581.915.835s.619.484.906.707q.9.68,1.622,1.24c.239.192.469.367.692.533.23.144.444.278.643.407l1.026.643c.566.349.866.533.866.533s.294.19.851.541c.572.318,1.448.732,2.544,1.28a41.55,41.55,0,0,0,18.541,4.2h.159a45.185,45.185,0,0,0,5.216-.325,42.528,42.528,0,0,0,15.575-5.112,43.378,43.378,0,0,0,12.5-10.591c.351-.438.685-.873,1.01-1.319a41.4,41.4,0,0,0,5.59-10.12c.135-.358.263-.716.382-1.065a25.264,25.264,0,0,0,.9-2.886c.232-.93.526-1.8.668-2.639s.272-1.631.4-2.363a17.082,17.082,0,0,0,.279-2.018c.049-.78.095-1.448.128-2,.015-.135.022-.27.031-.4.049-.771.071-1.247.08-1.4a.19.19,0,0,0,.009-.046S239.433,194.991,239.347,192.534Zm-4.809,7.218a15.06,15.06,0,0,1-.256,1.8c-.111.645-.221,1.353-.349,2.1s-.389,1.518-.6,2.345a19.458,19.458,0,0,1-.787,2.568c-.08.239-.168.477-.248.716-.055.141-.111.285-.159.429-.19.493-.4.995-.619,1.5a38.788,38.788,0,0,1-5.185,8.474c-.444.557-.913,1.105-1.4,1.647a38.543,38.543,0,0,1-9.731,7.775,37.621,37.621,0,0,1-13.849,4.549,37.071,37.071,0,0,1-4.635.285h-.144a38.393,38.393,0,0,1-7.95-.787,38.938,38.938,0,0,1-8.54-2.933c-.977-.5-1.748-.86-2.265-1.145-.493-.309-.756-.477-.756-.477s-.27-.159-.771-.477c-.245-.15-.548-.349-.913-.572-.175-.111-.367-.23-.572-.358-.2-.15-.4-.309-.612-.477-.438-.334-.915-.707-1.448-1.1-.254-.208-.524-.413-.811-.637-.263-.23-.524-.493-.8-.738-.557-.526-1.16-1.083-1.781-1.662-.373-.389-.738-.811-1.129-1.249-.214-.245-.438-.493-.667-.747-.175-.208-.349-.422-.533-.643-.1-.128-.208-.263-.318-.4a38.972,38.972,0,0,1-5.057-8.332c-.214-.493-.429-.995-.628-1.5a.138.138,0,0,0-.015-.049l-.144-.38a38.112,38.112,0,0,1-2.464-12.841c-.009-.38-.016-.756-.009-1.136a38.53,38.53,0,0,1,1.439-9.826,36.648,36.648,0,0,1,1.56-4.445,38.865,38.865,0,0,1,6.845-10.75c.652-.676,1.249-1.35,1.852-1.956.637-.564,1.249-1.1,1.812-1.6.287-.248.557-.5.835-.725.285-.206.564-.413.827-.6.533-.382,1.025-.747,1.47-1.065.223-.159.431-.309.63-.453.2-.128.4-.239.579-.349.367-.223.676-.4.93-.55.508-.294.78-.453.78-.453s.27-.159.763-.46c.524-.272,1.313-.612,2.305-1.081a39.574,39.574,0,0,1,8.611-2.712,38.937,38.937,0,0,1,6.79-.588h.159a40.283,40.283,0,0,1,5.8.438,37.613,37.613,0,0,1,13.716,4.913,38.394,38.394,0,0,1,10.874,9.722,36.573,36.573,0,0,1,5.908,11.283,11.547,11.547,0,0,1,.447,1.439c.1.389.19.771.285,1.145.184.833.422,1.6.533,2.36s.2,1.463.294,2.115a15.675,15.675,0,0,1,.2,1.8c.088,2.179.128,3.428.128,3.428a.992.992,0,0,1-.009.111C234.719,196.786,234.648,197.955,234.537,199.752Z" transform="translate(-153.659 -152.941)" fill="#5972ff"/>
                  </g>
                </g>
                <g id="Group_16362" data-name="Group 16362" transform="translate(6.312 6.616)">
                  <g id="Group_16361" data-name="Group 16361">
                    <path id="Path_31252" data-name="Path 31252" d="M233.1,190.624a13.642,13.642,0,0,0-.2-1.837c-.1-.667-.2-1.384-.3-2.146a13.176,13.176,0,0,0-.309-1.454c-.009-.04-.024-.08-.033-.119-.071-.27-.144-.548-.206-.835-.08-.318-.152-.643-.232-.977a13.094,13.094,0,0,0-.5-1.655,37.28,37.28,0,0,0-6.018-11.48,39.367,39.367,0,0,0-11.068-9.906,38.336,38.336,0,0,0-13.968-4.993,41.113,41.113,0,0,0-5.9-.446H194.2a39.722,39.722,0,0,0-6.918.6,40.576,40.576,0,0,0-8.768,2.758c-1,.486-1.806.827-2.338,1.1-.508.3-.778.469-.778.469s-.272.159-.8.462c-.254.159-.566.34-.946.555-.183.119-.382.232-.6.358-.2.144-.413.3-.637.462-.453.325-.953.692-1.485,1.09-.272.2-.566.4-.851.612-.287.23-.557.484-.844.747-.588.508-1.2,1.05-1.852,1.638-.621.6-1.224,1.288-1.883,1.987a39.535,39.535,0,0,0-6.973,10.931,38.231,38.231,0,0,0-1.638,4.716c-.159.564-.3,1.145-.431,1.724-.016.073-.031.135-.046.208a38.894,38.894,0,0,0-.93,7.895c-.009.38,0,.763.009,1.136a38.938,38.938,0,0,0,2.648,13.469c.175.444.349.873.539,1.3a39.542,39.542,0,0,0,4.937,8.332c.1.135.208.27.309.4.294.374.6.732.891,1.081.1.1.183.206.27.309.533.612,1.034,1.2,1.56,1.733.628.588,1.231,1.154,1.8,1.677.287.263.548.533.827.765s.566.435.827.643c.533.413,1.019.787,1.463,1.129.214.166.431.325.63.484.206.128.4.254.588.358.365.23.674.429.93.588.508.312.771.486.771.486s.276.166.778.484c.517.287,1.313.661,2.3,1.16a40.08,40.08,0,0,0,8.7,2.99,39.057,39.057,0,0,0,8.094.8h.144a40.525,40.525,0,0,0,4.73-.294,38.2,38.2,0,0,0,14.088-4.626,39.164,39.164,0,0,0,10.313-8.381c.358-.4.692-.8,1.017-1.209l.144-.181c.1-.137.208-.263.309-.4a38.429,38.429,0,0,0,4.946-8.332c.223-.508.42-1.01.6-1.5.119-.309.221-.612.325-.915a20.342,20.342,0,0,0,.811-2.615c.206-.835.477-1.622.612-2.385s.245-1.481.349-2.139a14.376,14.376,0,0,0,.263-1.821c.119-1.852.19-3.046.214-3.395a.947.947,0,0,0,.009-.1S233.182,192.843,233.1,190.624Zm-1.432,4.993c-.016.128-.024.254-.031.4-.024.413-.057.9-.088,1.439a17.019,17.019,0,0,1-.245,1.766c-.113.628-.223,1.319-.343,2.051s-.389,1.487-.588,2.3a19.631,19.631,0,0,1-.78,2.513c-.1.327-.223.652-.343.979l-.166.429c-.19.493-.407.995-.637,1.5a37.409,37.409,0,0,1-4.937,7.981c-.579.732-1.2,1.448-1.859,2.139a37.661,37.661,0,0,1-9.04,7.1,37.31,37.31,0,0,1-18.112,4.732h-.135a38.145,38.145,0,0,1-7.791-.771,39.181,39.181,0,0,1-8.365-2.878c-.946-.486-1.708-.844-2.21-1.123-.493-.3-.747-.46-.747-.46s-.254-.168-.747-.469c-.239-.153-.541-.343-.9-.566-.168-.1-.367-.223-.566-.349-.183-.144-.389-.3-.6-.462-.429-.334-.9-.692-1.414-1.09-.254-.19-.517-.4-.8-.612-.261-.221-.524-.484-.794-.738l-1.742-1.613c-.214-.223-.422-.462-.636-.7-.365-.4-.732-.835-1.121-1.264a38.74,38.74,0,0,1-5.638-8.856q-.332-.739-.643-1.5c-.049-.111-.088-.223-.135-.334-.015-.033-.024-.064-.04-.1a37.019,37.019,0,0,1-2.433-11.044c-.009-.135-.016-.27-.024-.4-.022-.469-.04-.93-.046-1.4-.016-.374-.016-.747-.009-1.12a37.519,37.519,0,0,1,1.454-9.842A36.279,36.279,0,0,1,159.9,179.1a38.037,38.037,0,0,1,6.7-10.512c.637-.676,1.218-1.326,1.815-1.923.628-.548,1.224-1.081,1.788-1.567.279-.245.542-.5.8-.723.287-.208.557-.391.82-.581.517-.389,1-.732,1.439-1.05.214-.159.413-.309.612-.444.206-.119.389-.239.579-.343.358-.206.661-.389.908-.533l.754-.444s.263-.159.756-.453c.508-.263,1.289-.6,2.25-1.059a35.658,35.658,0,0,1,15.082-3.236h.159a41.373,41.373,0,0,1,5.685.431,36.949,36.949,0,0,1,13.429,4.816,37.777,37.777,0,0,1,10.653,9.526,35.9,35.9,0,0,1,5.779,11.042,8.453,8.453,0,0,1,.389,1.2c.119.453.214.906.318,1.335.184.811.429,1.567.533,2.305s.2,1.439.287,2.067a16.562,16.562,0,0,1,.2,1.766c.08,2.146.126,3.364.126,3.364s0,.04-.007.126C231.735,194.432,231.7,194.909,231.664,195.617Z" transform="translate(-155.487 -154.775)" fill="#fff"/>
                  </g>
                </g>
              </g>
            </g>
          </g>
        </g>
        <path id="Path_31334" data-name="Path 31334" d="M620.217,104.141l.006,0,.215.11,1.13.644,3.256-4.162,1.02-1.3.007-.01c.849-.883.856-1.007.084-1.54l-.207-.242-.544-.55-.006-.006-.433-.331h0l-1.175-1.372-1.27,2.038-.077.106-.153.22-.086.125-.081.112a.063.063,0,0,0-.036.075l-.627.929a.058.058,0,0,0-.029.07l-.222.341v0l-.084.108-.009.026-.129.2-1.435,2.181-.669,1.02-.084.122c.022.1.01.268.07.3.47.252.953.479,1.433.713l.013-.037-.01.038Zm7.938-3.53,0,0-.226-.309-.142-.214-.408-.514a.08.08,0,0,0-.064-.079v-.032l-.032,0a.047.047,0,0,0-.04-.057l-.353-.5-.42.6-2.945,3.75-1.628,2.007,1.417,1.294.741.78.649-.664.028-.023.764-.768.127-.178,1.666-1.439.008-.007,1.309-1.2.908-.789-.483-.539-.087-.119-.245-.317-.1-.123-.276-.368a.046.046,0,0,0-.057-.052ZM616.7,105.9l-.007-.012-.237-.312-.443-.77c-.394-.9-.843-1.738-1.957-1.889l-2.194-.887a2.756,2.756,0,0,1,.4-.428,2.091,2.091,0,0,0,.872-2.211l.269.049.205.187.355.336.069.067a.037.037,0,0,0,.049.036l.622.552,0,0,.222.207c.414.467.822.074,1.232-.008.735-.157,1.474-.3,2.2-.481.156-.039.375-.194.4-.327.14-.711.229-1.432.339-2.175-1.166-.547-2.315-1.093-3.471-1.626-.293-.135-.6-.231-.908-.344L611.7,94.317c-1.765,2.728-3.468,5.376-5.192,8.009a.552.552,0,0,0,.045.722q3.315,5.011,6.608,10.036a1.181,1.181,0,0,1,.214.7c-.22,2.094-.474,4.184-.714,6.276-.135,1.175-.827,8.025-.961,9.227h11.725l-.286,1.247c.062-.075.282.078.286,0,.01-.193-.006-1.959,0-2.217s.3-6.147.308-6.464l0-.2v-.132c.093-2.028.227-4.055.259-6.085a3.06,3.06,0,0,1,.833-2.09l1.2-1.516.574-2.071.647-3.43.014-.108.092-.437a.1.1,0,0,0,.008-.1l.152-.852-.115-.033-.8.758,0,0-1.064,1.011-.909.878-.611.5c-.726-.746-1.482-1.444-2.141-2.224a2.467,2.467,0,0,0-1.866-.815l-.033,0-.374-.081-.136,0-1.014-.245a.079.079,0,0,0-.092-.01l-1.607-.382-.056.108,1.764,2.261.655.872,1,2.224c.507,1.258.534,2.736,1.732,3.68l-.386.269c-.911.316-.909.316-.9,1.223,0,.526,0,1.053,0,1.579,0,.688.013,1.375,0,2.062a7.052,7.052,0,0,1-.112.823l-.237-1.278-.334-2.138c0-.015.014-.032.01-.043a.477.477,0,0,0-.044-.07l-.06-.383,0-.011-.21-1.338a.061.061,0,0,0-.01-.081l-.1-.885c-.293,0-.531.016-.765,0a6.359,6.359,0,0,1-.638-.119l1.291-1.044.725-.553-.509-.742-.117-.209-.112-.186-.085-.134-.566-.907a.049.049,0,0,0-.028-.063l-.961-1.56v0l-.879-1.452a.061.061,0,0,0-.032-.073Zm1.128-14.446-1.145-.718a.071.071,0,0,0-.085-.04l-.338-.2-.017-.01-.657-.459-.3.471-.008.011-1.556,2.176-1.172,1.571,3.872,1.715.591-1.1.761-1.319.141-.286c.192-.309.388-.616.575-.928a.383.383,0,0,0-.182-.618C618.148,91.638,617.992,91.545,617.832,91.458Zm-.152,5,.791.522a7.058,7.058,0,0,0,.666.472.608.608,0,0,1,.355.787c-.145.6-.193,1.23-.3,1.947a7.889,7.889,0,0,0,2.674-3.195l.1-.153,1.166-1.786-.942-.606-.3-.221-2.684-1.951L616.943,96c.116.082.187.138.264.184C617.363,96.279,617.522,96.366,617.68,96.456Zm1.036,4.382-3.929.706,2.256,2.04Z" transform="translate(-555.585 -78.192)"/>
      </g>
    </g>
    <g id="Group_16631" data-name="Group 16631" transform="translate(164 445)">
      <g id="Group_16365" data-name="Group 16365">
        <g id="Group_16364" data-name="Group 16364">
          <rect id="Rectangle_6347" data-name="Rectangle 6347" width="99.905" height="22.01" fill="#5972ff"/>
        </g>
      </g>
    </g>
    <path id="Path_31372" data-name="Path 31372" d="M-29.193,0V-9.864H-30.97l-3.186,7.786h-.055L-37.4-9.864h-1.771V0h1.395V-7.26h.048l2.98,7.185h1.135l2.974-7.185h.048V0Zm3.972-1.046c-.793,0-1.312-.41-1.312-1.039s.5-1,1.381-1.066l1.771-.109v.567A1.724,1.724,0,0,1-25.221-1.046Zm-.41,1.169a2.57,2.57,0,0,0,2.27-1.306h.034V0h1.415V-4.956c0-1.442-1.114-2.365-2.857-2.365-1.777,0-2.885.957-2.967,2.256h1.395a1.377,1.377,0,0,1,1.518-1.053c.9,0,1.442.479,1.442,1.278v.554l-1.969.116c-1.709.1-2.673.868-2.673,2.126A2.18,2.18,0,0,0-25.631.123Zm6.364-6.378V-9.864h-1.319v3.609Zm4.1,5.209c-.793,0-1.312-.41-1.312-1.039s.5-1,1.381-1.066l1.771-.109v.567A1.724,1.724,0,0,1-15.166-1.046Zm-.41,1.169a2.57,2.57,0,0,0,2.27-1.306h.034V0h1.415V-4.956c0-1.442-1.114-2.365-2.857-2.365-1.777,0-2.885.957-2.967,2.256h1.395a1.377,1.377,0,0,1,1.518-1.053c.9,0,1.442.479,1.442,1.278v.554L-15.3-4.17c-1.709.1-2.673.868-2.673,2.126A2.18,2.18,0,0,0-15.576.123ZM-10-8.894v1.7h-1.046v1.169H-10v4.129C-10-.506-9.43.048-7.974.048a4.067,4.067,0,0,0,.82-.068V-1.189a3.23,3.23,0,0,1-.485.034c-.6,0-.875-.28-.875-.9V-6.022h1.367V-7.191H-8.514v-1.7ZM2.7-7.437h.068L4.9,0H6.347L9.013-9.864H7.42L5.6-2.14H5.541L3.449-9.864H2.027L-.058-2.14H-.113L-1.938-9.864H-3.531L-.872,0H.578Zm8.914,6.392c-.793,0-1.312-.41-1.312-1.039s.5-1,1.381-1.066l1.771-.109v.567A1.724,1.724,0,0,1,11.618-1.046ZM11.208.123a2.57,2.57,0,0,0,2.27-1.306h.034V0h1.415V-4.956c0-1.442-1.114-2.365-2.857-2.365-1.777,0-2.885.957-2.967,2.256H10.5a1.377,1.377,0,0,1,1.518-1.053c.9,0,1.442.479,1.442,1.278v.554l-1.969.116c-1.709.1-2.673.868-2.673,2.126A2.18,2.18,0,0,0,11.208.123ZM16.355,0h1.477V-4.307A1.484,1.484,0,0,1,19.37-5.961a2.114,2.114,0,0,1,.663.082V-7.253a2.694,2.694,0,0,0-.506-.055A1.732,1.732,0,0,0,17.8-5.968h-.034V-7.191H16.355Zm4.594,0h1.477V-4.307a1.484,1.484,0,0,1,1.538-1.654,2.114,2.114,0,0,1,.663.082V-7.253a2.694,2.694,0,0,0-.506-.055,1.732,1.732,0,0,0-1.729,1.34h-.034V-7.191H20.949ZM25.59,0h1.477V-7.191H25.59Zm.738-8.244a.849.849,0,0,0,.861-.841.851.851,0,0,0-.861-.848.849.849,0,0,0-.854.848A.848.848,0,0,0,26.329-8.244ZM31.667.137c2.058,0,3.411-1.415,3.411-3.732s-1.36-3.726-3.411-3.726S28.256-5.906,28.256-3.6,29.61.137,31.667.137Zm0-1.217C30.512-1.08,29.76-2,29.76-3.6S30.512-6.1,31.667-6.1s1.907.916,1.907,2.509S32.83-1.08,31.667-1.08ZM36.22,0H37.7V-4.307a1.484,1.484,0,0,1,1.538-1.654,2.114,2.114,0,0,1,.663.082V-7.253a2.694,2.694,0,0,0-.506-.055,1.732,1.732,0,0,0-1.729,1.34h-.034V-7.191H36.22Z" transform="translate(214 461)" fill="#fff"/>
  </g>
</svg>
