<svg xmlns="http://www.w3.org/2000/svg" xmlns:xlink="http://www.w3.org/1999/xlink" width="43.231" height="44.279" viewBox="0 0 43.231 44.279">
  <defs>
    <clipPath id="clip-path">
      <path id="Path_31375" data-name="Path 31375" d="M18.841,0A18.841,18.841,0,1,1,0,18.841,18.841,18.841,0,0,1,18.841,0Z" transform="translate(0 37.195) rotate(-80.783)" fill="#f4bc18"/>
    </clipPath>
  </defs>
  <g id="warrior" transform="translate(-161.472 -300)">
    <g id="Group_16636" data-name="Group 16636" transform="translate(161.472 301.047)">
      <g id="Group_16613" data-name="Group 16613" transform="translate(0 0)">
        <g id="Group_16611" data-name="Group 16611" transform="translate(0 0)">
          <g id="Group_16511" data-name="Group 16511" transform="translate(0 0)">
            <g id="Group_16456" data-name="Group 16456">
              <g id="Group_16384" data-name="Group 16384">
                <g id="Group_16363" data-name="Group 16363" transform="translate(0)">
                  <g id="Group_16358" data-name="Group 16358" transform="translate(0)">
                    <g id="Group_16357" data-name="Group 16357">
                      <path id="Path_31258" data-name="Path 31258" d="M18.841,0A18.841,18.841,0,1,1,0,18.841,18.841,18.841,0,0,1,18.841,0Z" transform="translate(0 37.195) rotate(-80.783)" fill="#f4bc18"/>
                    </g>
                  </g>
                  <g id="Group_16360" data-name="Group 16360" transform="translate(1.08 1.219)">
                    <g id="Group_16359" data-name="Group 16359">
                      <path id="Path_31251" data-name="Path 31251" d="M194.427,171.778a8.642,8.642,0,0,0-.106-.961c-.048-.348-.106-.726-.159-1.127-.015-.117-.038-.234-.064-.351l-.045-.2c-.057-.231-.121-.466-.175-.712v0a10.949,10.949,0,0,0-.393-1.381A19.782,19.782,0,0,0,190.327,161a20.537,20.537,0,0,0-5.811-5.194,20.219,20.219,0,0,0-7.346-2.632,21.41,21.41,0,0,0-3.094-.234h-.083a19.675,19.675,0,0,0-8.239,1.77c-.533.246-.953.44-1.229.579-.268.159-.412.242-.412.242s-.147.083-.416.246l-.5.291c-.1.06-.2.121-.314.185s-.219.163-.337.246c-.238.17-.5.359-.782.567-.144.106-.291.216-.447.326s-.287.253-.443.386c-.306.272-.631.559-.968.862s-.642.68-.991,1.04a20.783,20.783,0,0,0-3.658,5.746,19.469,19.469,0,0,0-.995,2.993c-.06.235-.117.472-.166.715-.015.067-.03.136-.042.2a20.115,20.115,0,0,0-.4,3.726c0,.189,0,.382,0,.571,0,.223.007.447.019.666,0,.064.007.129.011.189a20.338,20.338,0,0,0,1.332,6.174c.011.026.019.053.029.079a20.455,20.455,0,0,0,2.633,4.736c.287.39.578.76.874,1.1.333.375.644.738.961,1.067.332.313.65.609.945.889.151.137.291.277.435.4s.294.23.431.337q.426.323.772.59c.114.091.223.175.329.253s.211.132.306.193l.488.306.412.253s.14.09.4.258c.272.151.689.348,1.21.609a19.769,19.769,0,0,0,8.821,2h.076a21.5,21.5,0,0,0,2.482-.155,20.233,20.233,0,0,0,7.41-2.432,20.639,20.639,0,0,0,5.945-5.039c.167-.208.326-.415.481-.628a19.7,19.7,0,0,0,2.659-4.815c.064-.17.125-.341.182-.507a12.025,12.025,0,0,0,.427-1.373c.11-.443.25-.855.318-1.256s.129-.776.189-1.124a8.127,8.127,0,0,0,.133-.96c.023-.371.045-.689.061-.954.007-.064.01-.128.015-.189.023-.367.034-.593.038-.666a.09.09,0,0,0,0-.022S194.468,172.948,194.427,171.778Zm-2.288,3.434a7.158,7.158,0,0,1-.122.855c-.053.307-.105.644-.166,1s-.185.722-.287,1.116a9.26,9.26,0,0,1-.374,1.222c-.038.114-.08.227-.118.341-.026.067-.053.136-.076.2-.09.235-.189.473-.294.715a18.452,18.452,0,0,1-2.467,4.032c-.211.265-.434.526-.666.783a18.339,18.339,0,0,1-4.63,3.7,17.9,17.9,0,0,1-6.589,2.164,17.638,17.638,0,0,1-2.205.136h-.068a18.266,18.266,0,0,1-3.782-.374,18.528,18.528,0,0,1-4.063-1.4c-.465-.239-.832-.409-1.078-.545l-.36-.227s-.128-.076-.367-.227c-.117-.071-.261-.166-.434-.272l-.272-.17c-.095-.072-.189-.147-.291-.227-.208-.159-.435-.336-.689-.522-.121-.1-.249-.2-.386-.3s-.249-.234-.382-.351c-.265-.25-.552-.515-.848-.791-.178-.185-.351-.386-.537-.594-.1-.117-.208-.235-.318-.355-.083-.1-.166-.2-.253-.306-.049-.061-.1-.125-.151-.189a18.542,18.542,0,0,1-2.406-3.964c-.1-.234-.2-.473-.3-.715a.065.065,0,0,0-.007-.023l-.068-.181a18.133,18.133,0,0,1-1.172-6.109c0-.181-.007-.36,0-.541a18.331,18.331,0,0,1,.685-4.675,17.433,17.433,0,0,1,.742-2.115,18.491,18.491,0,0,1,3.257-5.115c.31-.322.594-.643.881-.931.3-.268.594-.522.862-.763.137-.118.265-.239.4-.345s.268-.2.393-.287c.253-.182.488-.355.7-.507l.3-.216c.095-.061.189-.114.275-.166.175-.106.322-.189.443-.262l.371-.216s.128-.076.363-.219.625-.291,1.1-.514a18.829,18.829,0,0,1,4.1-1.29,18.528,18.528,0,0,1,3.23-.28h.076a19.167,19.167,0,0,1,2.757.208,17.9,17.9,0,0,1,6.526,2.338,18.267,18.267,0,0,1,5.174,4.626,17.4,17.4,0,0,1,2.811,5.368,5.494,5.494,0,0,1,.212.685c.048.185.09.367.136.545.087.4.2.763.253,1.123s.095.7.14,1.006a7.459,7.459,0,0,1,.095.858c.042,1.037.061,1.631.061,1.631a.47.47,0,0,1,0,.053C192.225,173.8,192.192,174.358,192.139,175.213Z" transform="translate(-153.659 -152.941)" fill="#5972ff"/>
                    </g>
                  </g>
                  <g id="Group_16362" data-name="Group 16362" transform="translate(3.003 3.148)">
                    <g id="Group_16361" data-name="Group 16361">
                      <path id="Path_31252" data-name="Path 31252" d="M192.412,171.831a6.49,6.49,0,0,0-.095-.874c-.049-.318-.095-.658-.144-1.021a6.272,6.272,0,0,0-.147-.692c0-.019-.012-.038-.016-.057-.034-.128-.068-.261-.1-.4s-.073-.306-.11-.465a6.228,6.228,0,0,0-.238-.788,17.736,17.736,0,0,0-2.863-5.462,18.73,18.73,0,0,0-5.266-4.713,18.239,18.239,0,0,0-6.646-2.375,19.559,19.559,0,0,0-2.807-.212h-.076a18.9,18.9,0,0,0-3.291.284,19.3,19.3,0,0,0-4.171,1.312c-.477.231-.859.393-1.113.523s-.37.223-.37.223l-.379.22c-.121.076-.269.162-.45.264-.087.057-.182.11-.284.17s-.2.144-.3.22c-.216.155-.453.329-.707.518-.129.095-.269.189-.4.291s-.265.23-.4.355c-.28.242-.571.5-.881.779s-.583.613-.9.945a18.811,18.811,0,0,0-3.318,5.2,18.191,18.191,0,0,0-.779,2.244c-.076.268-.144.545-.205.82-.007.035-.015.064-.022.1a18.505,18.505,0,0,0-.443,3.756c0,.181,0,.363,0,.54a18.525,18.525,0,0,0,1.26,6.408c.083.211.166.415.257.62a18.814,18.814,0,0,0,2.349,3.964c.049.064.1.128.147.189.14.178.284.348.424.514.045.049.087.1.128.147.253.291.492.571.742.824.3.28.586.549.858.8.137.125.261.253.393.364s.269.207.393.306c.253.2.485.374.7.537.1.079.205.155.3.23s.188.121.28.17c.173.109.321.2.443.28.242.148.367.231.367.231s.131.079.37.23.625.314,1.094.552a19.071,19.071,0,0,0,4.138,1.423,18.586,18.586,0,0,0,3.851.382h.068a19.277,19.277,0,0,0,2.25-.14,18.176,18.176,0,0,0,6.7-2.2,18.633,18.633,0,0,0,4.906-3.987c.17-.189.329-.382.484-.575l.068-.086c.049-.065.1-.125.147-.189a18.285,18.285,0,0,0,2.353-3.964c.106-.242.2-.481.284-.715.057-.147.105-.291.155-.435a9.678,9.678,0,0,0,.386-1.244c.1-.4.227-.772.291-1.135s.117-.7.166-1.018a6.838,6.838,0,0,0,.125-.866c.057-.881.09-1.449.1-1.615a.452.452,0,0,0,0-.049S192.453,172.887,192.412,171.831Zm-.681,2.375c-.007.061-.012.121-.015.189-.012.2-.027.428-.042.685a8.1,8.1,0,0,1-.117.84c-.054.3-.106.628-.163.976s-.185.708-.28,1.093a9.34,9.34,0,0,1-.371,1.2c-.049.156-.106.31-.163.466l-.079.2c-.09.234-.193.473-.3.715a17.8,17.8,0,0,1-2.349,3.8c-.276.348-.571.689-.884,1.018a17.919,17.919,0,0,1-4.3,3.378,17.751,17.751,0,0,1-8.617,2.251h-.064a18.146,18.146,0,0,1-3.707-.367,18.639,18.639,0,0,1-3.98-1.369c-.45-.231-.813-.4-1.052-.534s-.355-.219-.355-.219-.121-.08-.355-.223l-.427-.269c-.08-.049-.175-.106-.269-.166l-.284-.22c-.2-.159-.427-.329-.673-.518-.121-.09-.246-.188-.379-.291s-.249-.23-.378-.351l-.829-.768c-.1-.106-.2-.22-.3-.333-.174-.192-.348-.4-.533-.6a18.432,18.432,0,0,1-2.682-4.214q-.158-.352-.306-.715c-.023-.053-.042-.106-.064-.159-.007-.016-.012-.03-.019-.045a17.613,17.613,0,0,1-1.158-5.255c0-.064-.007-.128-.012-.189-.01-.223-.019-.443-.022-.666-.007-.178-.007-.355,0-.533a17.851,17.851,0,0,1,.692-4.683,17.264,17.264,0,0,1,.7-1.975,18.1,18.1,0,0,1,3.188-5c.3-.322.579-.631.863-.915.3-.261.583-.514.851-.746.133-.117.258-.239.382-.344s.265-.186.39-.277c.246-.185.476-.348.685-.5.1-.076.2-.147.291-.211s.185-.114.275-.163c.17-.1.314-.185.432-.253l.359-.211.36-.216c.242-.125.613-.284,1.07-.5a16.965,16.965,0,0,1,7.176-1.539h.076a19.684,19.684,0,0,1,2.7.205,17.58,17.58,0,0,1,6.389,2.291,17.974,17.974,0,0,1,5.068,4.532,17.081,17.081,0,0,1,2.75,5.254,4.026,4.026,0,0,1,.185.572c.057.216.1.431.151.635.087.386.2.746.253,1.1s.095.685.137.983a7.871,7.871,0,0,1,.095.84c.038,1.021.06,1.6.06,1.6s0,.019,0,.06C191.764,173.643,191.749,173.87,191.73,174.206Z" transform="translate(-155.487 -154.775)" fill="#fff"/>
                    </g>
                  </g>
                </g>
              </g>
            </g>
          </g>
        </g>
      </g>
    </g>
    <g id="Mask_Group_10" data-name="Mask Group 10" transform="translate(161.472 300)" clip-path="url(#clip-path)">
      <path id="Path_31374" data-name="Path 31374" d="M617.526,101.394l0,0,.173.088.91.519,2.622-3.352.821-1.049.006-.008c.684-.711.689-.811.068-1.241l-.167-.195-.438-.443,0,0-.349-.266h0l-.946-1.1L619.2,95.981l-.062.085-.123.177-.069.1-.066.09a.051.051,0,0,0-.029.061l-.5.748a.046.046,0,0,0-.024.056l-.179.274v0l-.068.087-.007.021-.1.158L616.811,99.6l-.539.821-.067.1c.017.083.008.216.056.242.379.2.768.386,1.154.574l.01-.03-.008.03Zm6.393-2.843,0,0-.182-.249-.114-.173-.328-.414a.064.064,0,0,0-.052-.063v-.026l-.026,0a.038.038,0,0,0-.032-.046l-.284-.4-.338.487-2.372,3.02-1.311,1.617,1.142,1.042.6.628.523-.535.022-.018.615-.618.1-.143,1.342-1.159.006-.005,1.054-.97.731-.636-.389-.434-.07-.1-.2-.255-.079-.1-.223-.3a.037.037,0,0,0-.046-.042Zm-9.221,4.263-.006-.009-.191-.251-.356-.62c-.317-.723-.678-1.4-1.576-1.521L610.8,99.7a2.222,2.222,0,0,1,.323-.344,1.683,1.683,0,0,0,.7-1.78l.217.039.165.151.286.271.055.054a.03.03,0,0,0,.039.029l.5.445,0,0,.179.167c.333.376.662.06.992-.006.592-.126,1.187-.242,1.775-.388.126-.031.3-.156.323-.263.113-.573.184-1.153.273-1.752-.939-.441-1.865-.88-2.8-1.309-.236-.109-.487-.186-.731-.277l-2.439-1.255c-1.421,2.2-2.793,4.329-4.182,6.45a.445.445,0,0,0,.036.582q2.67,4.035,5.322,8.082a.95.95,0,0,1,.172.562c-.177,1.686-.382,3.369-.575,5.054-.109.946-.666,6.463-.774,7.431h9.442l-.23,1c.05-.061.227.063.23,0,.008-.156,0-1.577,0-1.786s.243-4.951.248-5.206l0-.159v-.106c.075-1.633.183-3.266.209-4.9a2.465,2.465,0,0,1,.671-1.683l.968-1.221.462-1.668.521-2.763.011-.087.074-.352a.08.08,0,0,0,.006-.079q.061-.343.123-.686l-.093-.027-.645.61,0,0-.856.814-.732.707-.492.407c-.585-.6-1.193-1.163-1.724-1.791a1.987,1.987,0,0,0-1.5-.656l-.026,0-.3-.066-.11,0-.816-.2a.064.064,0,0,0-.074-.008l-1.295-.308-.046.087,1.421,1.821.527.7.8,1.791c.408,1.013.43,2.2,1.395,2.963l-.311.216c-.733.255-.732.255-.726.985,0,.424,0,.848,0,1.272,0,.554.01,1.108,0,1.661a5.683,5.683,0,0,1-.09.663l-.191-1.029q-.134-.861-.268-1.722c0-.012.011-.026.008-.035a.413.413,0,0,0-.035-.056l-.048-.308v-.009L617,109.362a.049.049,0,0,0-.008-.066l-.077-.713c-.236,0-.427.013-.616,0a5.114,5.114,0,0,1-.514-.1l1.04-.841.583-.445-.41-.6-.094-.168-.09-.15-.068-.108-.456-.73a.039.039,0,0,0-.022-.051l-.774-1.256v0l-.708-1.169a.049.049,0,0,0-.026-.059Zm.908-11.634-.923-.578a.057.057,0,0,0-.068-.032l-.272-.165-.014-.008-.529-.37-.243.379-.006.009L612.3,92.168l-.944,1.265,3.118,1.381.476-.888.613-1.062.114-.23c.155-.249.312-.5.463-.748a.309.309,0,0,0-.147-.5C615.86,91.325,615.734,91.25,615.606,91.18Zm-.122,4.025.637.421a5.693,5.693,0,0,0,.537.38.49.49,0,0,1,.286.634c-.117.486-.155.99-.239,1.568a6.354,6.354,0,0,0,2.154-2.573l.084-.123.939-1.438-.759-.488-.241-.178-2.162-1.571-1.829,3c.094.066.151.111.212.148C615.228,95.062,615.356,95.132,615.483,95.2Zm.834,3.529-3.164.568,1.817,1.643Z" transform="translate(-594.087 -80.541)"/>
    </g>
  </g>
</svg>
