<svg xmlns="http://www.w3.org/2000/svg" width="23.001" height="23.006" viewBox="0 0 23.001 23.006">
  <g id="watsup" transform="translate(-171.68 -51.317)">
    <path id="Path_31365" data-name="Path 31365" d="M194.676,62.239a11.294,11.294,0,0,0-22.567-.206c0,.163-.01.327-.01.491a11.121,11.121,0,0,0,1.617,5.789l-2.036,6.01,6.255-1.988a11.305,11.305,0,0,0,16.747-9.811C194.681,62.428,194.681,62.334,194.676,62.239ZM183.39,71.944a9.447,9.447,0,0,1-5.222-1.56l-3.648,1.163,1.184-3.5a9.325,9.325,0,0,1-1.808-5.524,8.672,8.672,0,0,1,.047-.914,9.5,9.5,0,0,1,18.91.18c.021.243.032.486.032.735A9.469,9.469,0,0,1,183.39,71.944Z" fill="#888686" fill-rule="evenodd"/>
    <path id="Path_31366" data-name="Path 31366" d="M187.993,64.224c-.281-.137-1.639-.8-1.893-.892s-.44-.138-.624.137-.719.894-.878,1.073-.322.206-.6.069a7.5,7.5,0,0,1-2.226-1.364,8.23,8.23,0,0,1-1.538-1.9c-.159-.274-.015-.423.121-.56s.275-.323.418-.481c.037-.047.069-.09.1-.132a3.284,3.284,0,0,0,.174-.328.5.5,0,0,0-.021-.48c-.069-.138-.624-1.491-.857-2.04s-.459-.455-.624-.455-.344-.026-.529-.026a1.026,1.026,0,0,0-.739.344,3.074,3.074,0,0,0-.967,2.294,3.53,3.53,0,0,0,.142.937,6.244,6.244,0,0,0,.989,1.9,11.355,11.355,0,0,0,4.725,4.15c2.817,1.094,2.817.729,3.325.682a2.762,2.762,0,0,0,1.865-1.307,2.259,2.259,0,0,0,.164-1.306C188.452,64.431,188.267,64.361,187.993,64.224Z" transform="translate(0.573 0.562)" fill="#888686" fill-rule="evenodd"/>
  </g>
</svg>
