<svg xmlns="http://www.w3.org/2000/svg" width="24.953" height="24.951" viewBox="0 0 24.953 24.951">
  <path id="articles_tab" d="M512.433,499.464c.372.061.744.119,1.115.184a10.567,10.567,0,0,1,4.769,2.136,10.972,10.972,0,0,1,1.847,15.514c-.04.051-.077.1-.125.17.063.066.121.13.183.192q2.472,2.472,4.944,4.943a1.016,1.016,0,0,1,.109,1.476.993.993,0,0,1-1.344.135,2.079,2.079,0,0,1-.252-.228q-2.439-2.436-4.874-4.875a2.635,2.635,0,0,1-.173-.211c-.372.264-.706.518-1.056.748a10.558,10.558,0,0,1-4.662,1.7,11.02,11.02,0,0,1-12.111-8.737c-.078-.372-.109-.753-.165-1.13a.64.64,0,0,0-.047-.128v-1.8q.055-.342.11-.684a11.04,11.04,0,0,1,8.865-9.212c.37-.07.742-.128,1.113-.192Zm-9.8,10.983a8.949,8.949,0,1,0,8.954-8.944A8.955,8.955,0,0,0,502.63,510.447Z" transform="translate(-500.591 -499.464)"/>
</svg>
