<svg xmlns="http://www.w3.org/2000/svg" width="24.951" height="19.011" viewBox="0 0 24.951 19.011">
  <path id="chats_tab" d="M433.591,504.289v15.35a1.8,1.8,0,0,0-.138.3,2.092,2.092,0,0,1-1.894,1.493c-6.886.016-13.771.008-20.656.015a2.176,2.176,0,0,1-1.215-.34,2.025,2.025,0,0,1-1.039-1.733c-.014-4.969-.008-9.938-.007-14.907a1,1,0,0,1,.027-.238,2.233,2.233,0,0,1,2.3-1.793q9.243,0,18.488,0,1.092,0,2.185.049a2.089,2.089,0,0,1,1.785,1.329C433.493,503.97,433.538,504.131,433.591,504.289Zm-22.434-.376,9.933,9.853,9.856-9.853Zm.088,16.052h19.721l-6.939-6.939c-.619.622-1.265,1.273-1.913,1.921a6.054,6.054,0,0,1-.5.464.692.692,0,0,1-1.012-.07q-1.122-1.116-2.248-2.231c-.055-.054-.115-.1-.134-.123Zm5.849-8.1-6.977-6.922v13.9Zm15.02,6.972v-13.78l-6.891,6.889Z" transform="translate(-408.64 -502.436)"/>
</svg>
