<svg xmlns="http://www.w3.org/2000/svg" width="26.958" height="26.958" viewBox="0 0 26.958 26.958">
  <g id="explore_tab" transform="translate(4798 2025)" style="isolation: isolate">
    <path id="Path_31347" data-name="Path 31347" d="M341.6,508.1v16.632a1.279,1.279,0,0,0-.1.121,1.222,1.222,0,0,1-1.121.574q-11.983-.023-23.967-.011c-.29,0-.579,0-.868,0a1.091,1.091,0,0,1-.89-.894q0-8.09,0-16.18a.542.542,0,0,1,.083-.292,1.764,1.764,0,0,1,1.494-.84q11.892-.008,23.783,0a1.763,1.763,0,0,1,.357.059A2.183,2.183,0,0,1,341.6,508.1ZM328.09,524.048h11.5c.55,0,.636-.087.637-.64v-14c0-.5-.071-.572-.58-.572H316.542c-.465,0-.526.06-.526.532v14.105a1.836,1.836,0,0,0,0,.21.369.369,0,0,0,.413.365Z" transform="translate(-5112.638 -2523.468)"/>
    <path id="Path_31348" data-name="Path 31348" d="M341.6,499.152v5.369a2.236,2.236,0,0,1-2.036.954q-11.482-.018-22.965-.007c-.114,0-.228,0-.342,0a1.926,1.926,0,0,1-1.362-.643.853.853,0,0,1-.248-.636c.011-1.534.021-3.069,0-4.6a1.116,1.116,0,0,1,.488-.954c.068-.055.137-.108.206-.162h25.579Zm-13.513,4.685h11.575c.461,0,.569-.108.569-.574q0-1.395,0-2.789c0-.551-.086-.637-.638-.637H316.465c-.3,0-.438.127-.447.423s0,.578,0,.868c0,.745,0,1.49,0,2.236,0,.337.126.474.411.474Z" transform="translate(-5112.638 -2523.468)"/>
    <path id="Path_31349" data-name="Path 31349" d="M327.858,516.451c0-1.307.026-2.614-.008-3.92a2.017,2.017,0,0,1,1.963-1.969c2.245.034,4.49.007,6.735.013a1.874,1.874,0,0,1,1.891,1.611,4.842,4.842,0,0,1,.049.624c0,2.491.013,4.982-.005,7.472a1.823,1.823,0,0,1-.941,1.727,2.288,2.288,0,0,1-.99.288c-2.254.025-4.508.008-6.762.015a2,2,0,0,1-1.94-1.968C327.884,519.047,327.858,517.749,327.858,516.451Zm1.632-.027q0,1.922,0,3.841c0,.294.113.416.378.416q3.249,0,6.5,0c.363,0,.491-.13.491-.491q0-3.75,0-7.5c0-.385-.1-.484-.481-.484q-3.224,0-6.446,0c-.341,0-.44.1-.441.431Q329.489,514.53,329.49,516.424Z" transform="translate(-5112.638 -2523.468)"/>
    <path id="Path_31350" data-name="Path 31350" d="M321.913,513.31c-1.1,0-2.191-.025-3.285.012a.876.876,0,0,1-.879-.81.863.863,0,0,1,.842-.832c.087-.005.175,0,.263,0h6.309a.834.834,0,0,1,.9.57.774.774,0,0,1-.757,1.06C324.174,513.313,323.044,513.31,321.913,513.31Z" transform="translate(-5112.638 -2523.468)"/>
    <path id="Path_31351" data-name="Path 31351" d="M321.9,516.678c-1.087,0-2.174-.026-3.259.012a.872.872,0,0,1-.891-.824.862.862,0,0,1,.883-.817c.569-.008,1.139,0,1.708,0q2.42,0,4.837,0a.822.822,0,0,1,.887.584.77.77,0,0,1-.748,1.045C324.177,516.682,323.038,516.678,321.9,516.678Z" transform="translate(-5112.638 -2523.468)"/>
    <path id="Path_31352" data-name="Path 31352" d="M321.9,520.047c-1.087,0-2.174-.026-3.259.012a.874.874,0,0,1-.888-.828.862.862,0,0,1,.886-.814c.692-.007,1.384,0,2.076,0q2.235,0,4.469,0a.822.822,0,0,1,.885.587.77.77,0,0,1-.752,1.042C324.174,520.05,323.035,520.047,321.9,520.047Z" transform="translate(-5112.638 -2523.468)"/>
  </g>
</svg>
