<svg xmlns="http://www.w3.org/2000/svg" width="10.789" height="15.679" viewBox="0 0 10.789 15.679">
  <g id="maat_warrior" transform="translate(-172.5 -334.659)" opacity="0.8">
    <path id="Path_31336" data-name="Path 31336" d="M612.844,96.614l0,0,.1.051.528.3,1.519-1.942.476-.608,0,0c.4-.412.4-.47.039-.719l-.1-.113-.254-.257,0,0-.2-.154h0l-.548-.64-.593.951-.036.049-.071.1-.04.058-.038.052a.029.029,0,0,0-.017.035l-.293.434a.027.027,0,0,0-.014.033l-.1.159h0l-.039.05,0,.012-.06.092-.669,1.018-.312.476-.039.057c.01.048,0,.125.033.14.219.118.445.223.669.333l.006-.017,0,.018Zm3.7-1.647v0l-.106-.144-.066-.1-.19-.24a.037.037,0,0,0-.03-.037v-.015l-.015,0a.022.022,0,0,0-.018-.026l-.165-.233-.2.282-1.374,1.75-.76.937.661.6.346.364.3-.31.013-.011.357-.358.059-.083.778-.671,0,0,.611-.562.424-.368-.226-.252-.041-.055-.114-.148-.046-.058-.129-.172a.022.022,0,0,0-.027-.024Zm-5.343,2.47,0-.005-.111-.145-.207-.359c-.184-.419-.393-.811-.913-.881l-1.024-.414a1.28,1.28,0,0,1,.187-.2.976.976,0,0,0,.407-1.032l.125.023.1.088.166.157.032.031a.017.017,0,0,0,.023.017l.29.258v0l.1.1c.193.218.383.035.575,0,.343-.073.688-.14,1.028-.225.073-.018.175-.09.187-.153.065-.332.107-.668.158-1.015-.544-.255-1.081-.51-1.62-.759-.137-.063-.282-.108-.424-.161l-1.413-.727c-.824,1.273-1.618,2.509-2.423,3.738a.258.258,0,0,0,.021.337q1.547,2.338,3.084,4.683a.552.552,0,0,1,.1.326c-.1.977-.221,1.953-.333,2.929-.063.548-.122,1.1-.185,1.658h5.208l.022.006.021-.007c.029-.035.082-.069.084-.106.012-.238.013-.476.017-.715l0-.092v-.062c.043-.946.106-1.893.121-2.84a1.428,1.428,0,0,1,.388-.975l.561-.708.268-.967.3-1.6.006-.051.043-.2a.046.046,0,0,0,0-.046l.071-.4-.054-.016-.374.354,0,0-.5.472-.424.41-.285.236c-.339-.348-.691-.674-1-1.038a1.151,1.151,0,0,0-.871-.38l-.015,0-.175-.038h-.064l-.473-.114a.037.037,0,0,0-.043,0l-.75-.178-.026.05.823,1.055.305.407.465,1.038c.237.587.249,1.277.808,1.717l-.18.125c-.425.148-.424.148-.421.571,0,.246,0,.491,0,.737,0,.321.006.642,0,.963a3.306,3.306,0,0,1-.052.384l-.111-.6-.156-1c0-.007.007-.015,0-.02a.227.227,0,0,0-.021-.033l-.028-.179v-.005l-.1-.624a.028.028,0,0,0,0-.038l-.044-.413c-.137,0-.248.007-.357,0a2.979,2.979,0,0,1-.3-.055l.6-.487.338-.258-.238-.346-.054-.1-.052-.087-.039-.063-.264-.423a.023.023,0,0,0-.013-.029l-.448-.728h0l-.41-.677a.028.028,0,0,0-.015-.034Zm.526-6.742-.534-.335a.033.033,0,0,0-.04-.018l-.158-.1-.008,0-.306-.214-.141.22,0,.005-.726,1.015-.547.733,1.807.8.276-.515.355-.615.066-.133c.09-.144.181-.288.268-.433a.179.179,0,0,0-.085-.288C611.879,90.779,611.806,90.735,611.732,90.695Zm-.071,2.332.369.244a3.286,3.286,0,0,0,.311.22.284.284,0,0,1,.166.367c-.068.282-.09.574-.138.908a3.681,3.681,0,0,0,1.248-1.491l.049-.071.544-.834-.44-.283-.14-.1-1.253-.911-1.06,1.741c.054.038.087.064.123.086C611.513,92.945,611.587,92.985,611.661,93.027Zm.483,2.045-1.833.329,1.052.952Z" transform="translate(-433.894 244.632)"/>
  </g>
</svg>
