<svg xmlns="http://www.w3.org/2000/svg" width="29.5" height="26.376" viewBox="0 0 29.5 26.376">
  <g id="reply" transform="translate(0 0)">
    <path id="Path_31261" data-name="Path 31261" d="M318.37,338.786a7.722,7.722,0,0,0-.607-.785q-4.007-4.025-8.028-8.035c-.492-.492-.963-.605-1.424-.223a1.842,1.842,0,0,0-.468.889,2.219,2.219,0,0,0-.008.831.785.785,0,0,0,.187.444q3.084,3.113,6.185,6.21a1.1,1.1,0,0,1-.01,1.825c-1.909,1.91-3.788,3.852-5.747,5.709a2.049,2.049,0,0,0-.614,1.894.985.985,0,0,0,.7.9,1,1,0,0,0,1.109-.267q4.188-4.19,8.374-8.383a3.116,3.116,0,0,0,.355-.546Z" transform="translate(-288.87 -329.514)"/>
    <path id="Path_31262" data-name="Path 31262" d="M407.916,332.96c0,.663.01,1.327-.011,1.989a.368.368,0,0,1-.243.26,20.451,20.451,0,0,0-6.479,1.492,9.446,9.446,0,0,0-5.646,7.309,15.592,15.592,0,0,0,1.232,9.242c.35.831.737,1.646,1.1,2.47.137.307.323.54.7.43s.392-.422.36-.746a20.5,20.5,0,0,1,.066-5.229,6.56,6.56,0,0,1,4.747-5.757,34.869,34.869,0,0,1,3.914-.774c.068-.012.241.148.242.23.016,1.23.016,2.46.009,3.69a1.071,1.071,0,0,0,.671,1.154,1.106,1.106,0,0,0,1.263-.368q4.068-4.086,8.151-8.158a1.069,1.069,0,0,0,0-1.762q-4.076-4.078-8.15-8.158a1.078,1.078,0,0,0-1.934.813C407.923,331.71,407.916,332.335,407.916,332.96Z" transform="translate(-395.284 -329.803)"/>
  </g>
</svg>
