<svg xmlns="http://www.w3.org/2000/svg" width="44.039" height="45.141" viewBox="0 0 44.039 45.141">
  <g id="sparkling_bell" transform="translate(-325.689 -320)">
    <g id="Group_16703" data-name="Group 16703" transform="translate(325.689 320)">
      <path id="Path_31403" data-name="Path 31403" d="M360.107,320c.167.051.333.1.5.151a3.648,3.648,0,0,1,2.263,5.154c-.3.6-.659,1.177-1,1.775.436.458.906.883,1.3,1.372a14.992,14.992,0,0,1,2.165,16.39,105.435,105.435,0,0,0-4.03,9.85c-.387,1.212-.652,2.465-.948,3.7a.666.666,0,0,0,.138.5,3.136,3.136,0,0,1,.085,4.019,3.073,3.073,0,0,1-3.849.826c-1.19-.571-2.371-1.16-3.557-1.741-.011-.005-.029,0-.043,0a5.726,5.726,0,0,1-10.255-5.1q-1.908-.943-3.819-1.888-4.993-2.465-9.985-4.93a3.066,3.066,0,0,1-1.765-3.25,3.11,3.11,0,0,1,2.469-2.613,2.78,2.78,0,0,1,1.048-.027.621.621,0,0,0,.668-.264,37.98,37.98,0,0,0,4.526-6.812c1.072-1.955,1.984-4,3.113-5.921a15.1,15.1,0,0,1,11.628-7.641,13.053,13.053,0,0,1,4.21.175.371.371,0,0,0,.481-.226c.278-.517.586-1.017.876-1.528a3.683,3.683,0,0,1,2.567-1.9.731.731,0,0,0,.156-.073ZM358.6,357.714c.238-.9.435-1.742.683-2.567a81.2,81.2,0,0,1,4.392-10.934,13.523,13.523,0,0,0,.752-9.828,12.566,12.566,0,0,0-11.01-9.058,12.959,12.959,0,0,0-11.938,5.559,29.242,29.242,0,0,0-2.252,4.025,63,63,0,0,1-5.415,9.011c-.279.371-.578.726-.894,1.121Zm.881,3.162a1.4,1.4,0,0,0-.9-1.182q-11.014-5.425-22.022-10.862c-1.828-.9-3.653-1.811-5.485-2.707a1.311,1.311,0,0,0-1.954.828c-.193.67.13,1.227.935,1.624l21.229,10.479q3.1,1.529,6.2,3.054A1.337,1.337,0,0,0,359.481,360.876Zm-14.967-3.168a3.794,3.794,0,0,0,.212,3.858,3.711,3.711,0,0,0,3.6,1.774,3.814,3.814,0,0,0,3.18-2.178Zm15.955-31.783c.264-.466.572-.95.821-1.462a1.858,1.858,0,0,0-.669-2.364,1.833,1.833,0,0,0-2.457.361,20.431,20.431,0,0,0-1.073,1.75Z" transform="translate(-327.088 -320)" fill="none"/>
      <path id="Path_31404" data-name="Path 31404" d="M328.872,392.552a2.425,2.425,0,0,1,.339.458c.222.574.4,1.166.637,1.733a1.055,1.055,0,0,0,.448.481c.478.255.99.445,1.473.691.135.069.31.252.3.365a.732.732,0,0,1-.316.405,1.554,1.554,0,0,1-.518.235,2.242,2.242,0,0,0-1.765,1.929,3.05,3.05,0,0,1-.285.783c-.054.112-.2.252-.3.25a.44.44,0,0,1-.3-.252c-.22-.559-.428-1.124-.606-1.7a.925.925,0,0,0-.6-.639,12.864,12.864,0,0,1-1.321-.6.712.712,0,0,1-.362-.42c-.016-.107.2-.295.351-.372.469-.241.968-.425,1.431-.675a1.065,1.065,0,0,0,.449-.484c.238-.567.417-1.159.636-1.734A2.671,2.671,0,0,1,328.872,392.552Z" transform="translate(-325.689 -384.004)" fill="#fff"/>
      <path id="Path_31405" data-name="Path 31405" d="M413.122,320.2a1.105,1.105,0,0,1,.226.168.627.627,0,0,1,.1.24,2.353,2.353,0,0,0,1.824,2.035.3.3,0,0,1,0,.591,2.367,2.367,0,0,0-1.832,2.031c-.027.131-.178.236-.272.353-.093-.118-.188-.234-.279-.354a.193.193,0,0,1-.031-.082,2.227,2.227,0,0,0-1.752-1.935c-.125-.032-.3-.2-.3-.31s.173-.275.3-.307a2.312,2.312,0,0,0,1.773-1.978A1.9,1.9,0,0,1,413.122,320.2Z" transform="translate(-400.782 -320.176)" fill="#fff"/>
      <path id="Path_31406" data-name="Path 31406" d="M675.523,369.124a1.619,1.619,0,0,1-1.595,1.6,1.6,1.6,0,1,1,1.595-1.6Z" transform="translate(-631.484 -361.92)" fill="#fff"/>
      <path id="Path_31407" data-name="Path 31407" d="M362.376,352.861a.678.678,0,1,1-.667-.676A.68.68,0,0,1,362.376,352.861Z" transform="translate(-356.857 -348.393)" fill="#fff"/>
      <path id="Path_31408" data-name="Path 31408" d="M400.857,397.278l-25.681-12.672c.316-.395.615-.75.894-1.121a63,63,0,0,0,5.415-9.011,29.238,29.238,0,0,1,2.252-4.025,12.959,12.959,0,0,1,11.938-5.559,12.566,12.566,0,0,1,11.01,9.058,13.523,13.523,0,0,1-.752,9.828,81.2,81.2,0,0,0-4.392,10.934C401.292,395.536,401.1,396.377,400.857,397.278Zm-10.423-28.023a3.815,3.815,0,0,0-.59-.761.791.791,0,0,0-.948.048,12.3,12.3,0,0,0-2.863,2.588.873.873,0,0,0,.1,1.291.919.919,0,0,0,1.264-.133c.835-.777,1.7-1.523,2.531-2.3A4.493,4.493,0,0,0,390.434,369.254Zm1.873-.421a12.646,12.646,0,0,0,1.236-.386.84.84,0,0,0,.428-1.007.815.815,0,0,0-.844-.633,6.646,6.646,0,0,0-1.428.39.821.821,0,0,0-.414.971A.94.94,0,0,0,392.307,368.833Z" transform="translate(-369.345 -359.564)" fill="#fff"/>
      <path id="Path_31409" data-name="Path 31409" d="M372.859,555.174a1.337,1.337,0,0,1-2,1.233q-3.1-1.518-6.2-3.054l-21.229-10.479c-.8-.4-1.128-.953-.935-1.624a1.311,1.311,0,0,1,1.954-.828c1.832.9,3.657,1.8,5.485,2.707q11.01,5.433,22.022,10.862A1.4,1.4,0,0,1,372.859,555.174Z" transform="translate(-340.466 -514.298)" fill="#fff"/>
      <path id="Path_31410" data-name="Path 31410" d="M470.416,640.057l6.994,3.454a3.814,3.814,0,0,1-3.18,2.178,3.711,3.711,0,0,1-3.6-1.774A3.794,3.794,0,0,1,470.416,640.057Z" transform="translate(-452.991 -602.349)" fill="#fff"/>
      <path id="Path_31411" data-name="Path 31411" d="M583.725,339.3l-3.378-1.714a20.438,20.438,0,0,1,1.073-1.749,1.833,1.833,0,0,1,2.457-.361,1.858,1.858,0,0,1,.669,2.364C584.3,338.35,583.989,338.834,583.725,339.3Z" transform="translate(-550.344 -333.375)" fill="#fff"/>
      <path id="Path_31412" data-name="Path 31412" d="M469.946,395.524a4.5,4.5,0,0,1-.507.732c-.833.778-1.7,1.525-2.531,2.3a.919.919,0,0,1-1.264.133.873.873,0,0,1-.1-1.291,12.3,12.3,0,0,1,2.863-2.588.791.791,0,0,1,.948-.048A3.819,3.819,0,0,1,469.946,395.524Z" transform="translate(-448.858 -385.833)" fill="#5972ff"/>
      <path id="Path_31413" data-name="Path 31413" d="M512.707,383.456a.94.94,0,0,1-1.021-.666.821.821,0,0,1,.414-.971,6.649,6.649,0,0,1,1.428-.39.815.815,0,0,1,.844.633.84.84,0,0,1-.428,1.007A12.632,12.632,0,0,1,512.707,383.456Z" transform="translate(-489.746 -374.186)" fill="#5972ff"/>
    </g>
  </g>
</svg>
