<svg xmlns="http://www.w3.org/2000/svg" width="18.772" height="25.03" viewBox="0 0 18.772 25.03">
  <g id="padlock" transform="translate(-3)">
    <path id="Path_616" data-name="Path 616" d="M19.426,24.644H5.347A2.349,2.349,0,0,1,3,22.3V11.347A2.349,2.349,0,0,1,5.347,9H19.426a2.349,2.349,0,0,1,2.347,2.347V22.3A2.349,2.349,0,0,1,19.426,24.644ZM5.347,10.564a.783.783,0,0,0-.782.782V22.3a.783.783,0,0,0,.782.782H19.426a.783.783,0,0,0,.782-.782V11.347a.783.783,0,0,0-.782-.782Z" transform="translate(0 0.386)"/>
    <path id="Path_617" data-name="Path 617" d="M17.733,10.951a.782.782,0,0,1-.782-.782V6.257a4.693,4.693,0,0,0-9.386,0v3.911a.782.782,0,0,1-1.564,0V6.257a6.257,6.257,0,0,1,12.515,0v3.911A.782.782,0,0,1,17.733,10.951Z" transform="translate(0.129)"/>
    <path id="Path_618" data-name="Path 618" d="M12.086,17.172a2.086,2.086,0,1,1,2.086-2.086A2.088,2.088,0,0,1,12.086,17.172Zm0-2.607a.521.521,0,1,0,.521.521A.522.522,0,0,0,12.086,14.564Z" transform="translate(0.3 0.558)"/>
    <path id="Path_619" data-name="Path 619" d="M12.032,20.182a.782.782,0,0,1-.782-.782V16.532a.782.782,0,0,1,1.564,0V19.4A.782.782,0,0,1,12.032,20.182Z" transform="translate(0.354 0.676)"/>
  </g>
</svg>
