<svg xmlns="http://www.w3.org/2000/svg" width="23" height="17.633" viewBox="0 0 23 17.633">
  <path id="Path_9546" data-name="Path 9546" d="M33.281,73.284a2.913,2.913,0,0,1-.017-3.952l.141-.145a2.916,2.916,0,0,1,3.514-.393,2.842,2.842,0,0,1,.458.342l.014.013c.8.766,2.149,2.018,3.036,2.807l.761.683L50.5,62.867a2.916,2.916,0,0,1,2.016-.878h.011a3.085,3.085,0,0,1,.554.043,2.918,2.918,0,0,1,1.05.4,2.892,2.892,0,0,1,.437.34l.067.061a2.943,2.943,0,0,1,.351.419,2.785,2.785,0,0,1,.27.487,2.909,2.909,0,0,1,.243,1.1v.1a2.987,2.987,0,0,1-.047.5,2.87,2.87,0,0,1-.742,1.468L43.459,78.708a2.828,2.828,0,0,1-.423.371,2.922,2.922,0,0,1-1.022.463,2.991,2.991,0,0,1-.558.077H41.4a2.954,2.954,0,0,1-.513-.032l-.042-.008a3,3,0,0,1-.5-.128,2.94,2.94,0,0,1-.507-.238l-.026-.017a2.973,2.973,0,0,1-.427-.312l-.026-.025c-.653-.606-1.363-1.223-2.081-1.846-1.243-1.08-2.967-2.638-4-3.729l0,0Z" transform="translate(-32.5 -61.99)" fill="#6bbe66"/>
</svg>
